<?xml version="1.0" encoding="UTF-8"?>
<svg version="1.1" xmlns="http://www.w3.org/2000/svg" width="500" height="500">
<path d="M0 0 C3.72056757 1.58581568 6.33994263 3.90891505 9.3125 6.625 C10.21613281 7.44226563 11.11976563 8.25953125 12.05078125 9.1015625 C14.24337844 11.18602958 16.23268293 13.38085735 18.203125 15.67578125 C22.69729852 20.88673768 27.56353639 25.70932088 32.4375 30.5625 C33.34048828 31.46935547 34.24347656 32.37621094 35.17382812 33.31054688 C39.74728197 37.87737733 44.3875358 42.27182244 49.2902832 46.48168945 C51.67547927 48.599858 53.76897414 50.9192888 55.875 53.3125 C60.8095161 58.81627908 65.96511741 64.08209614 71.1875 69.3125 C71.93563965 70.0650708 72.6837793 70.8176416 73.45458984 71.59301758 C76.95975923 75.08929452 80.50045526 78.48135639 84.25390625 81.7109375 C92.97559768 89.23855577 100.16521365 97.88060437 101.37109375 109.609375 C101.74981834 121.03997166 99.6972852 128.16945228 92.3125 136.875 C85.21066062 144.280158 78.30747271 146.68979642 68.1875 147.1875 C53.61539818 146.88276023 45.30964489 138.76701603 35.5625 128.6875 C33.7950619 126.87686068 32.02563437 125.06816046 30.25390625 123.26171875 C29.09870483 122.07002075 29.09870483 122.07002075 27.92016602 120.85424805 C26.12983431 118.94007804 26.12983431 118.94007804 24 118 C24 117.34 24 116.68 24 116 C23.41283203 115.74404053 22.82566406 115.48808105 22.22070312 115.22436523 C19.78767477 113.88293634 18.33247267 112.46195392 16.46875 110.41015625 C15.50001953 109.35731445 15.50001953 109.35731445 14.51171875 108.28320312 C13.84785156 107.55037109 13.18398438 106.81753906 12.5 106.0625 C11.18007986 104.6131508 9.85725519 103.16644034 8.53125 101.72265625 C7.94923828 101.08078369 7.36722656 100.43891113 6.76757812 99.77758789 C4.96507327 97.96487548 3.07969594 96.48129825 1 95 C0.44570313 95.5775 -0.10859375 96.155 -0.6796875 96.75 C-1.40414062 97.4925 -2.12859375 98.235 -2.875 99 C-3.59429687 99.7425 -4.31359375 100.485 -5.0546875 101.25 C-7 103 -7 103 -9 103 C-9 103.66 -9 104.32 -9 105 C-9.66 105 -10.32 105 -11 105 C-11 105.66 -11 106.32 -11 107 C-11.66 107 -12.32 107 -13 107 C-13.38671875 107.87398437 -13.38671875 107.87398437 -13.78125 108.765625 C-15.09834017 111.1802903 -16.55088384 112.81740177 -18.5 114.75 C-19.1084375 115.36359375 -19.716875 115.9771875 -20.34375 116.609375 C-22 118 -22 118 -24 118 C-24 118.66 -24 119.32 -24 120 C-24.66 120 -25.32 120 -26 120 C-26.38671875 120.87398437 -26.38671875 120.87398437 -26.78125 121.765625 C-28.09834017 124.1802903 -29.55088384 125.81740177 -31.5 127.75 C-32.1084375 128.36359375 -32.716875 128.9771875 -33.34375 129.609375 C-35 131 -35 131 -37 131 C-37 131.66 -37 132.32 -37 133 C-37.66 133 -38.32 133 -39 133 C-39 133.66 -39 134.32 -39 135 C-39.66 135 -40.32 135 -41 135 C-41.226875 135.556875 -41.45375 136.11375 -41.6875 136.6875 C-43.37550036 139.66159588 -45.46676517 141.72008865 -48 144 C-48.66 144 -49.32 144 -50 144 C-50 144.66 -50 145.32 -50 146 C-50.66 146 -51.32 146 -52 146 C-52 146.66 -52 147.32 -52 148 C-52.66 148 -53.32 148 -54 148 C-54.2578125 148.58265625 -54.515625 149.1653125 -54.78125 149.765625 C-56.09834017 152.1802903 -57.55088384 153.81740177 -59.5 155.75 C-60.1084375 156.36359375 -60.716875 156.9771875 -61.34375 157.609375 C-63 159 -63 159 -65 159 C-65 159.66 -65 160.32 -65 161 C-65.66 161 -66.32 161 -67 161 C-67 161.66 -67 162.32 -67 163 C-67.66 163 -68.32 163 -69 163 C-69.185625 163.556875 -69.37125 164.11375 -69.5625 164.6875 C-73.10447623 170.38546177 -79.08526875 172.84079096 -85.328125 174.49609375 C-94.2594049 176.1805018 -103.26610793 175.37287769 -111.19140625 170.7109375 C-118.46332489 165.55022105 -124.7935671 158.82573158 -127 150 C-128.04768073 139.65148012 -127.60462614 130.25572816 -121.24609375 121.6171875 C-119.57412902 119.61362225 -117.95738489 117.72596993 -116 116 C-115.34 116 -114.68 116 -114 116 C-114 115.34 -114 114.68 -114 114 C-113.34 114 -112.68 114 -112 114 C-112 113.34 -112 112.68 -112 112 C-111.34 112 -110.68 112 -110 112 C-109.773125 111.443125 -109.54625 110.88625 -109.3125 110.3125 C-107.62449964 107.33840412 -105.53323483 105.27991135 -103 103 C-102.34 103 -101.68 103 -101 103 C-101 102.34 -101 101.68 -101 101 C-100.34 101 -99.68 101 -99 101 C-99 100.34 -99 99.68 -99 99 C-98.34 99 -97.68 99 -97 99 C-96.75378906 98.42926758 -96.50757813 97.85853516 -96.25390625 97.27050781 C-94.79101003 94.6215719 -93.07354681 92.81451454 -90.9375 90.671875 C-90.14085937 89.87265625 -89.34421875 89.0734375 -88.5234375 88.25 C-87.69070312 87.425 -86.85796875 86.6 -86 85.75 C-84.75089844 84.48929688 -84.75089844 84.48929688 -83.4765625 83.203125 C-82.67992187 82.4090625 -81.88328125 81.615 -81.0625 80.796875 C-80.33160156 80.06823242 -79.60070312 79.33958984 -78.84765625 78.58886719 C-77 77 -77 77 -75 77 C-75 76.34 -75 75.68 -75 75 C-74.34 75 -73.68 75 -73 75 C-73 74.34 -73 73.68 -73 73 C-72.34 73 -71.68 73 -71 73 C-71 72.34 -71 71.68 -71 71 C-70.34 71 -69.68 71 -69 71 C-69 70.34 -69 69.68 -69 69 C-68.34 69 -67.68 69 -67 69 C-66.731875 68.401875 -66.46375 67.80375 -66.1875 67.1875 C-65.00082594 65.00152146 -63.90400887 63.58667406 -62 62 C-61.34 62 -60.68 62 -60 62 C-59.74927734 61.42475586 -59.49855469 60.84951172 -59.24023438 60.25683594 C-57.83271173 57.69558804 -56.21829975 55.95942608 -54.15625 53.890625 C-53.02896484 52.75947266 -53.02896484 52.75947266 -51.87890625 51.60546875 C-51.09386719 50.82816406 -50.30882812 50.05085938 -49.5 49.25 C-48.71496094 48.45722656 -47.92992187 47.66445313 -47.12109375 46.84765625 C-46.36957031 46.09871094 -45.61804688 45.34976563 -44.84375 44.578125 C-44.15474609 43.89137695 -43.46574219 43.20462891 -42.75585938 42.49707031 C-41 41 -41 41 -39 41 C-38.731875 40.401875 -38.46375 39.80375 -38.1875 39.1875 C-37.00082594 37.00152146 -35.90400887 35.58667406 -34 34 C-33.34 34 -32.68 34 -32 34 C-32 33.34 -32 32.68 -32 32 C-31.34 32 -30.68 32 -30 32 C-30 31.34 -30 30.68 -30 30 C-29.34 30 -28.68 30 -28 30 C-28 29.34 -28 28.68 -28 28 C-27.34 28 -26.68 28 -26 28 C-25.7628125 27.43829102 -25.525625 26.87658203 -25.28125 26.29785156 C-23.70680643 23.47417342 -21.78315455 21.52385158 -19.5 19.234375 C-18.1696875 17.90019531 -18.1696875 17.90019531 -16.8125 16.5390625 C-15.884375 15.61867188 -14.95625 14.69828125 -14 13.75 C-13.071875 12.81414062 -12.14375 11.87828125 -11.1875 10.9140625 C-9.8571875 9.58761719 -9.8571875 9.58761719 -8.5 8.234375 C-7.6853125 7.42194336 -6.870625 6.60951172 -6.03125 5.77246094 C-4 4 -4 4 -2 4 C-2 3.34 -2 2.68 -2 2 C-1.34 2 -0.68 2 0 2 C0 1.34 0 0.68 0 0 Z " fill="#26FDE8" transform="translate(263,272)"/>
<path d="M0 0 C7.13081648 5.35999705 11.57517232 12.51989353 13.8125 21.125 C14.55924565 32.57509999 13.19175888 41.63898776 6 51 C5.34 51 4.68 51 4 51 C4 51.66 4 52.32 4 53 C3.34 53 2.68 53 2 53 C2 53.66 2 54.32 2 55 C1.34 55 0.68 55 0 55 C0 55.66 0 56.32 0 57 C-0.66 57 -1.32 57 -2 57 C-2 57.66 -2 58.32 -2 59 C-2.66 59 -3.32 59 -4 59 C-4.24621094 59.58523437 -4.49242187 60.17046875 -4.74609375 60.7734375 C-6.19373768 63.34402017 -7.79242482 64.75455693 -10.0625 66.625 C-12.97875712 68.95485552 -12.97875712 68.95485552 -15 72 C-15.66 72 -16.32 72 -17 72 C-17.226875 72.556875 -17.45375 73.11375 -17.6875 73.6875 C-19.37550036 76.66159588 -21.46676517 78.72008865 -24 81 C-24.66 81 -25.32 81 -26 81 C-26 81.66 -26 82.32 -26 83 C-26.66 83 -27.32 83 -28 83 C-28 83.66 -28 84.32 -28 85 C-28.66 85 -29.32 85 -30 85 C-30.226875 85.556875 -30.45375 86.11375 -30.6875 86.6875 C-32.37550036 89.66159588 -34.46676517 91.72008865 -37 94 C-37.66 94 -38.32 94 -39 94 C-38.2575 94.7425 -37.515 95.485 -36.75 96.25 C-35.8425 97.1575 -34.935 98.065 -34 99 C-33.236875 99.721875 -32.47375 100.44375 -31.6875 101.1875 C-30 103 -30 103 -30 105 C-29.34 105 -28.68 105 -28 105 C-28 105.66 -28 106.32 -28 107 C-27.34 107 -26.68 107 -26 107 C-26 107.66 -26 108.32 -26 109 C-25.40832031 109.26554687 -24.81664062 109.53109375 -24.20703125 109.8046875 C-19.13700059 112.55058021 -15.40586166 117.48902759 -11.6875 121.8125 C-6.26916282 128.08124885 -0.42582552 133.99113454 5.875 139.375 C13.62418435 146.02389448 20.81760667 153.41608933 27.4140625 161.203125 C29.08520812 163.09654122 30.86030739 164.82011379 32.6875 166.5625 C39.27780369 173.07892136 42.0406162 180.56845078 42.3125 189.8125 C42.15849284 198.01594798 40.38317504 205.62518745 35 212 C26.39654025 219.87640681 18.68791585 223.65340194 6.94848633 223.46630859 C-9.75521937 222.7007139 -19.50058081 209.65068495 -30.60009766 198.54516602 C-31.72451505 197.4237485 -32.84913446 196.30253351 -33.97393799 195.1815033 C-36.99631667 192.16787246 -40.01552732 189.1510878 -43.03385592 186.13340116 C-44.92118607 184.24678538 -46.80922793 182.36088485 -48.69752121 180.47523308 C-55.28768073 173.89428776 -61.8752904 167.31080265 -68.46044922 160.72485352 C-74.59882915 154.5858699 -80.74279843 148.45251916 -86.88933909 142.32170731 C-92.17543208 137.04866026 -97.45769281 131.77179525 -102.73694646 126.49190086 C-105.88675394 123.34183805 -109.03810566 120.19335845 -112.19331741 117.04870796 C-115.15101699 114.10064273 -118.10394012 111.14787777 -121.05316925 108.19133949 C-122.13828976 107.10516816 -123.22513657 106.02071844 -124.31378555 104.93808365 C-125.79363726 103.46588308 -127.26726378 101.98772708 -128.7394104 100.50782776 C-129.56709742 99.68068551 -130.39478443 98.85354326 -131.24755287 98.0013361 C-133 96 -133 96 -133 94 C-132.34 94 -131.68 94 -131 94 C-131 93.34 -131 92.68 -131 92 C-130.34 92 -129.68 92 -129 92 C-128.69564026 91.20864655 -128.69564026 91.20864655 -128.38513184 90.40130615 C-126.39889017 86.95789795 -123.63746286 84.35970372 -120.83789062 81.57910156 C-120.20682907 80.94453537 -119.57576752 80.30996918 -118.92558289 79.65617371 C-116.8408052 77.56260156 -114.74880658 75.47641993 -112.65625 73.390625 C-111.20629059 71.93931862 -109.7566282 70.48771544 -108.30725098 69.03582764 C-105.27073993 65.99636871 -102.23064194 62.96055557 -99.18798828 59.92724609 C-95.28023079 56.03090318 -91.38154643 52.12562439 -87.48548126 48.21759415 C-84.49519922 45.22010184 -81.50019076 42.22736879 -78.50370789 39.23607635 C-77.06366464 37.79737086 -75.62511547 36.35716835 -74.18806458 34.91547394 C-72.18419948 32.90655515 -70.17407966 30.904117 -68.16210938 28.90332031 C-67.26591133 28.00104958 -67.26591133 28.00104958 -66.35160828 27.08055115 C-62.22853043 23 -62.22853043 23 -60 23 C-60 22.34 -60 21.68 -60 21 C-59.34 21 -58.68 21 -58 21 C-57.74202637 20.42113037 -57.48405273 19.84226074 -57.21826172 19.24584961 C-52.09763581 9.80604245 -40.23259931 -1.23427337 -30.0234375 -4.46484375 C-19.20260268 -6.38015947 -9.532926 -5.76181262 0 0 Z " fill="#01FC5F" transform="translate(405,141)"/>
<path d="M0 0 C2.6875 2.25 2.6875 2.25 5 5 C5.49242187 5.50402344 5.98484375 6.00804687 6.4921875 6.52734375 C12.89346625 13.29486482 15.21956646 20.22699769 15.5 29.5 C14.806574 48.74257158 -0.77315223 61.51582401 -14 74 C-15.98962483 75.78547202 -18.00465412 77.53165668 -20.0390625 79.265625 C-25.52365167 84.11653654 -30.67513876 89.37761415 -35.4375 94.9375 C-41.10216376 101.53736768 -47.32341609 107.78797 -53.9375 113.4375 C-61.61198841 120.00660942 -68.67313426 127.3297508 -75.23046875 135.00390625 C-80.07931913 140.47358074 -85.31845124 145.62709659 -90.875 150.375 C-94.49029588 153.47382504 -97.87867996 156.76592817 -101.25 160.125 C-101.75772949 160.62821777 -102.26545898 161.13143555 -102.78857422 161.64990234 C-105.74449052 164.61754459 -108.44653734 167.68049854 -111 171 C-115.16662395 170.48668539 -117.06266573 168.26941899 -119.921875 165.3359375 C-120.38555481 164.86564117 -120.84923462 164.39534485 -121.32696533 163.91079712 C-122.80859836 162.4058144 -124.2797384 160.89108668 -125.75 159.375 C-127.67836652 157.39977238 -129.61130224 155.4291026 -131.546875 153.4609375 C-132.01903442 152.97937195 -132.49119385 152.4978064 -132.97766113 152.00164795 C-135.60312501 149.34354614 -138.28738571 146.82475279 -141.140625 144.4140625 C-145.00848501 141.1200953 -148.29077351 137.42364347 -151.64794922 133.61865234 C-155.62511744 129.19067785 -159.84528723 125.01035296 -164.0625 120.8125 C-164.90876953 119.96236328 -165.75503906 119.11222656 -166.62695312 118.23632812 C-171.06086414 113.80925429 -175.57624178 109.56674517 -180.32641602 105.48217773 C-182.37705982 103.66606416 -184.16496894 101.71169959 -185.9375 99.625 C-191.05477141 93.78825282 -196.58478337 88.38690086 -202.14819336 82.97705078 C-209.71431282 75.53342142 -213.25531436 69.24183756 -213.4375 58.375 C-213.44920359 49.94451149 -211.65859696 42.16130494 -205.953125 35.671875 C-204 34 -204 34 -202 34 C-202 33.34 -202 32.68 -202 32 C-196.70588235 28 -196.70588235 28 -193 28 C-192.67 27.34 -192.34 26.68 -192 26 C-183.31340307 23.51123378 -172.4851949 23.81922084 -164.296875 27.65234375 C-160.23865912 30.0334398 -156.36617817 32.69886875 -153 36 C-153 36.66 -153 37.32 -153 38 C-152.34 38 -151.68 38 -151 38 C-151 38.66 -151 39.32 -151 40 C-150.34 40 -149.68 40 -149 40 C-149 40.66 -149 41.32 -149 42 C-148.40493652 42.25749023 -147.80987305 42.51498047 -147.19677734 42.78027344 C-144.80153917 44.1101923 -143.57869855 45.40426181 -141.8515625 47.515625 C-137.61238478 52.52124605 -133.02194992 57.12483266 -128.375 61.75 C-127.54226562 62.58660156 -126.70953125 63.42320313 -125.8515625 64.28515625 C-125.04203125 65.09339844 -124.2325 65.90164062 -123.3984375 66.734375 C-122.31054932 67.82057129 -122.31054932 67.82057129 -121.20068359 68.92871094 C-118.97333322 71.09265689 -118.97333322 71.09265689 -116.22509766 73.14160156 C-115.49081543 73.75487305 -114.7565332 74.36814453 -114 75 C-114 75.66 -114 76.32 -114 77 C-108.77844696 72.5305906 -103.78625363 67.91943105 -98.96069336 63.02661133 C-98.3075264 62.36877151 -97.65435944 61.7109317 -96.98139954 61.03315735 C-95.57811487 59.61945476 -94.17594157 58.20464826 -92.77479362 56.7888279 C-90.55325995 54.54508166 -88.327619 52.30548626 -86.10072327 50.06706238 C-79.77466226 43.70757755 -73.45287543 37.34389141 -67.14135742 30.9699707 C-63.26771299 27.05861588 -59.38673733 23.15466445 -55.50100899 19.25531578 C-54.02749287 17.77376879 -52.55675383 16.2894542 -51.08891106 14.80228615 C-49.03613825 12.72294188 -46.97415722 10.65315209 -44.90991211 8.58520508 C-44.31179718 7.97473328 -43.71368225 7.36426147 -43.09744263 6.73529053 C-32.58704725 -3.72572846 -13.54975226 -7.84625189 0 0 Z " fill="#27FDE8" transform="translate(349,57)"/>
<path d="M0 0 C9.15698857 5.45224528 16.56934052 14.40494584 24.09183216 21.89727306 C25.21790068 23.01541759 26.34414173 24.13338838 27.47054005 25.25120068 C31.12569926 28.88046361 34.77569854 32.51489142 38.42508411 36.14995861 C39.68749307 37.40699955 40.94990676 38.66403573 42.2123251 39.92106724 C47.45714036 45.14432556 52.70054803 50.3689901 57.94025421 55.59737396 C65.43199825 63.0728135 72.93216985 70.53956888 80.44405335 77.99477226 C85.74038569 83.25249807 91.0271866 88.51968629 96.30690032 93.79409951 C99.45677529 96.94031611 102.61072265 100.08218449 105.77491283 103.21400928 C108.74158077 106.15075081 111.69632362 109.09897217 114.6421423 112.05662251 C115.72666885 113.14137091 116.81551423 114.22182038 117.90885639 115.29768276 C119.3961866 116.7625088 120.8674342 118.24177533 122.33553028 119.72584057 C123.16413909 120.55113923 123.9927479 121.37643789 124.84646606 122.22674561 C126.47586536 124.47417736 126.47586536 124.47417736 126.37355232 126.61152458 C124.94730554 129.57091093 122.75726569 131.50725847 120.41336536 133.78667736 C119.91312855 134.27668224 119.41289173 134.76668713 118.89749622 135.27154064 C116.19219824 137.90008951 113.42330547 140.42071512 110.53836536 142.84917736 C107.12848736 145.76506902 104.11048173 148.96808514 101.10086536 152.28667736 C95.95479201 157.95603737 90.63565812 163.43104817 85.22586536 168.84917736 C84.4815929 169.59788097 83.73732044 170.34658459 82.97049427 171.11797619 C79.48529363 174.59427218 75.96303433 177.96698314 72.23367786 181.18120861 C69.11405898 183.87095875 66.32621194 186.68969262 63.60086536 189.78667736 C58.67263096 195.27440602 53.5469421 200.55260666 48.35086536 205.78667736 C47.61110462 206.53924816 46.87134388 207.29181896 46.10916615 208.06719494 C35.7058833 218.49007183 26.60319019 225.74382749 11.38431263 225.79326916 C2.564296 225.6291315 -4.3170651 222.6812469 -10.52413464 216.47417736 C-10.52413464 215.81417736 -10.52413464 215.15417736 -10.52413464 214.47417736 C-11.18413464 214.47417736 -11.84413464 214.47417736 -12.52413464 214.47417736 C-12.52413464 213.81417736 -12.52413464 213.15417736 -12.52413464 212.47417736 C-13.18413464 212.47417736 -13.84413464 212.47417736 -14.52413464 212.47417736 C-19.80172007 202.52215912 -21.41852039 192.87428262 -18.93038464 181.84136486 C-14.54498357 170.51241209 -3.60597839 161.25701228 4.8786974 152.86553478 C6.61096615 151.15168397 8.33493657 149.42980325 10.05789661 147.70659924 C19.15433251 138.64270785 19.15433251 138.64270785 23.46805286 135.11870861 C26.84753991 132.34206319 29.07284898 129.11511127 31.47586536 125.47417736 C29.29053785 123.11798623 27.10219566 120.76461449 24.91336536 118.41167736 C24.30428333 117.75490002 23.6952013 117.09812267 23.06766224 116.42144299 C16.47540317 108.55762524 16.47540317 108.55762524 8.47586536 102.47417736 C8.47586536 101.81417736 8.47586536 101.15417736 8.47586536 100.47417736 C7.81586536 100.47417736 7.15586536 100.47417736 6.47586536 100.47417736 C6.47586536 99.81417736 6.47586536 99.15417736 6.47586536 98.47417736 C5.89320911 98.21636486 5.31055286 97.95855236 4.71024036 97.69292736 C2.29557506 96.37583719 0.65846359 94.92329352 -1.27413464 92.97417736 C-1.88772839 92.36573986 -2.50132214 91.75730236 -3.13350964 91.13042736 C-4.52413464 89.47417736 -4.52413464 89.47417736 -4.52413464 87.47417736 C-5.18413464 87.47417736 -5.84413464 87.47417736 -6.52413464 87.47417736 C-6.52413464 86.81417736 -6.52413464 86.15417736 -6.52413464 85.47417736 C-7.18413464 85.47417736 -7.84413464 85.47417736 -8.52413464 85.47417736 C-9.86397839 84.11089611 -9.86397839 84.11089611 -11.46163464 82.16167736 C-17.15725236 75.46515611 -23.34056783 68.91504367 -30.21163464 63.41167736 C-30.97475964 62.77230236 -31.73788464 62.13292736 -32.52413464 61.47417736 C-32.52413464 60.81417736 -32.52413464 60.15417736 -32.52413464 59.47417736 C-33.18413464 59.47417736 -33.84413464 59.47417736 -34.52413464 59.47417736 C-34.52413464 58.81417736 -34.52413464 58.15417736 -34.52413464 57.47417736 C-35.18413464 57.47417736 -35.84413464 57.47417736 -36.52413464 57.47417736 C-36.52413464 56.81417736 -36.52413464 56.15417736 -36.52413464 55.47417736 C-37.35944714 55.19573986 -37.35944714 55.19573986 -38.21163464 54.91167736 C-42.63428594 52.16246169 -44.95328288 48.09982093 -46.65304089 43.25933361 C-48.72801922 34.24294794 -49.41215013 21.64681472 -44.52413464 13.47417736 C-34.51644179 -0.4816981 -16.41140743 -8.07588467 0 0 Z " fill="#02FC60" transform="translate(101.5241346359253,138.52582263946533)"/>
<path d="M0 0 C8.52274085 8.59816333 13.20594882 17.44666199 14.0234375 29.6484375 C13.95426912 39.5395159 11.38924393 49.27595581 5 57 C4.34 57 3.68 57 3 57 C2.79375 57.556875 2.5875 58.11375 2.375 58.6875 C-2.12356216 66.25326363 -10.97282751 69.12094034 -18.9921875 71.62109375 C-29.5195397 73.60777306 -40.56093779 71.77257524 -49.5625 65.875 C-50.366875 65.25625 -51.17125 64.6375 -52 64 C-52.99 63.34 -53.98 62.68 -55 62 C-55 61.34 -55 60.68 -55 60 C-55.59683594 59.773125 -56.19367188 59.54625 -56.80859375 59.3125 C-62.80489615 55.72113172 -65.79842901 46.11245753 -67.53125 39.59375 C-69.85375688 26.74254526 -66.81950058 16.02591315 -59.71875 5.3125 C-58.24508542 3.32975129 -56.88531959 1.59204765 -55 0 C-54.34 0 -53.68 0 -53 0 C-53 -0.66 -53 -1.32 -53 -2 C-35.23550719 -10.85440237 -16.6653946 -13.88782883 0 0 Z " fill="#02FC5F" transform="translate(484,205)"/>
<path d="M0 0 C1.81640625 1.59375 1.81640625 1.59375 3 3 C3 3.66 3 4.32 3 5 C3.66 5 4.32 5 5 5 C5.967407 6.68231469 6.92347446 8.37115197 7.875 10.0625 C8.40867187 11.00222656 8.94234375 11.94195312 9.4921875 12.91015625 C14.28812237 22.73809533 14.54621355 33.95480566 11.4375 44.375 C6.96310289 56.09666004 -1.70007424 63.71012879 -12.765625 69.01953125 C-21.35232056 72.78746934 -34.80591266 72.67678445 -43.625 69.5625 C-54.26163551 64.24418224 -63.01021933 54.12938819 -67 43 C-69.63379931 32.35429369 -69.02476698 20.20525813 -63.640625 10.56640625 C-60.8734458 6.22307601 -57.90680571 2.3641938 -54 -1 C-53.34 -1 -52.68 -1 -52 -1 C-52 -1.66 -52 -2.32 -52 -3 C-49.94072044 -3.98592155 -47.87743312 -4.96347494 -45.8125 -5.9375 C-44.66394531 -6.48277344 -43.51539063 -7.02804687 -42.33203125 -7.58984375 C-27.32610778 -13.94053352 -12.49205257 -9.14559589 0 0 Z " fill="#28FDE8" transform="translate(292,426)"/>
<path d="M0 0 C7.92550315 6.45421885 13.11541643 14.89177905 15 25 C16.08196405 37.35103574 13.3486483 47.25223409 6.3671875 57.453125 C5.91601562 57.96359375 5.46484375 58.4740625 5 59 C4.34 59 3.68 59 3 59 C3 59.66 3 60.32 3 61 C2.34 61 1.68 61 1 61 C1 61.66 1 62.32 1 63 C-8.27003148 71.03850556 -18.80586348 72.84711588 -30.73828125 72.40625 C-40.67949852 71.6931387 -48.32138277 67.49895298 -55.48828125 60.76953125 C-57 59 -57 59 -57 57 C-57.66 57 -58.32 57 -59 57 C-65.28626732 44.38792909 -69.39600142 33.47298339 -64.8828125 19.5546875 C-63.66349079 16.32961765 -62.38936737 13.15529225 -61 10 C-60.72285156 9.30777344 -60.44570312 8.61554687 -60.16015625 7.90234375 C-55.20438504 -0.22378615 -45.00658993 -5.33113669 -36.25 -8.25 C-22.87476841 -11.16107982 -10.93312187 -7.89117306 0 0 Z " fill="#26FDE8" transform="translate(262,12)"/>
<path d="M0 0 C8.96971345 7.01321456 14.64598099 14.68028552 17.35742188 25.82861328 C18.47995494 37.76291213 17.61517024 48.62057202 10.31445312 58.62939453 C8.41708707 60.85162836 6.57897194 62.93073277 4.35742188 64.82861328 C3.69742188 64.82861328 3.03742188 64.82861328 2.35742188 64.82861328 C2.35742188 65.48861328 2.35742188 66.14861328 2.35742188 66.82861328 C0.10985403 67.97944013 -2.1403956 69.12438186 -4.39257812 70.26611328 C-5.34390625 70.7543457 -5.34390625 70.7543457 -6.31445312 71.25244141 C-14.93583145 75.60803358 -24.38476813 76.31052411 -33.82617188 74.07470703 C-36.51524084 73.12364935 -39.06565897 72.04858332 -41.64257812 70.82861328 C-42.83882812 70.31298828 -44.03507812 69.79736328 -45.26757812 69.26611328 C-52.73753314 64.7121407 -58.49996888 55.86744245 -61.64257812 47.82861328 C-62.05507813 46.77673828 -62.46757813 45.72486328 -62.89257812 44.64111328 C-65.26105205 32.60137081 -63.65748471 21.71378541 -56.82617188 11.52001953 C-56.43558594 10.96185547 -56.045 10.40369141 -55.64257812 9.82861328 C-54.98257813 8.83861328 -54.32257812 7.84861328 -53.64257812 6.82861328 C-52.98257813 6.82861328 -52.32257812 6.82861328 -51.64257812 6.82861328 C-51.64257812 6.16861328 -51.64257812 5.50861328 -51.64257812 4.82861328 C-39.28293027 -9.08095826 -14.832597 -10.57770517 0 0 Z " fill="#02FC60" transform="translate(66.642578125,230.17138671875)"/>
<path d="M0 0 C7.54008985 3.21463652 12.31980262 10.59897597 15.30859375 17.95703125 C18.94485209 28.70145561 18.08288132 40.86789216 13.578125 51.171875 C11.25955752 55.32693157 8.43454057 58.72382442 5 62 C4.34 60.68 3.68 59.36 3 58 C4.32 57.34 5.64 56.68 7 56 C7 54.68 7 53.36 7 52 C7.99 52 8.98 52 10 52 C10 51.01 10 50.02 10 49 C10.66 49 11.32 49 12 49 C12 48.01 12 47.02 12 46 C12.66 46 13.32 46 14 46 C14 36.76 14 27.52 14 18 C13.34 18 12.68 18 12 18 C11.67 16.02 11.34 14.04 11 12 C10.34 12 9.68 12 9 12 C6.875 10.1875 6.875 10.1875 5 8 C5 7.01 5 6.02 5 5 C3.35 4.67 1.7 4.34 0 4 C0 2.68 0 1.36 0 0 Z " fill="#28E771" transform="translate(67,232)"/>
<path d="M0 0 C0.33 1.32 0.66 2.64 1 4 C0.34 4 -0.32 4 -1 4 C-1 5.65 -1 7.3 -1 9 C-1.99 9 -2.98 9 -4 9 C-4.11760715 12.16634636 -4.18771024 15.33212074 -4.25 18.5 C-4.30027344 19.8303125 -4.30027344 19.8303125 -4.3515625 21.1875 C-4.43244741 26.68767364 -3.79040921 30.47258469 -0.96386719 35.22851562 C0.07156184 37.13152297 0.55720908 38.88715513 1 41 C2.32 41 3.64 41 5 41 C5.33 42.65 5.66 44.3 6 46 C6.66 46 7.32 46 8 46 C8 46.66 8 47.32 8 48 C8.99 48 9.98 48 11 48 C11.33 48.99 11.66 49.98 12 51 C8.01328937 49.63312778 5.11505367 47.84804907 2 45 C2 44.34 2 43.68 2 43 C1.34 43 0.68 43 0 43 C0 42.34 0 41.68 0 41 C-0.66 41 -1.32 41 -2 41 C-7.215325 31.16538714 -9.23838648 21.00820794 -6.1953125 10.12109375 C-4.61959121 6.4138735 -2.65348991 3.05151339 0 0 Z " fill="#44EB89" transform="translate(89,310)"/>
<path d="M0 0 C0.66 0 1.32 0 2 0 C2 2 2 2 -0.25 4.3125 C-1.1575 5.199375 -2.065 6.08625 -3 7 C-5.57491471 9.93254175 -7.4204152 12.08780257 -8 16 C-8.66 16 -9.32 16 -10 16 C-9.979375 17.299375 -9.95875 18.59875 -9.9375 19.9375 C-9.91600546 21.29165633 -9.92851801 22.64756083 -10 24 C-10.33 24.33 -10.66 24.66 -11 25 C-11.07179964 26.51928038 -11.08392007 28.04167482 -11.0625 29.5625 C-11.05347656 30.38878906 -11.04445312 31.21507812 -11.03515625 32.06640625 C-11.02355469 32.70449219 -11.01195312 33.34257812 -11 34 C-9.68 34.66 -8.36 35.32 -7 36 C-7.226875 37.03125 -7.45375 38.0625 -7.6875 39.125 C-8.04170827 43.51718258 -7.10064384 45.23634645 -5 49 C-5.33 49.66 -5.66 50.32 -6 51 C-13.50520822 41.32223151 -13.82201577 31.82094422 -13 20 C-11.86437558 11.29766068 -5.98920641 5.98920641 0 0 Z " fill="#46EA86" transform="translate(67,141)"/>
<path d="M0 0 C0 0.33 0 0.66 0 1 C-6.6 0.67 -13.2 0.34 -20 0 C-20 0.66 -20 1.32 -20 2 C-21.4540625 2.12375 -21.4540625 2.12375 -22.9375 2.25 C-27.01569178 2.8076303 -30.39931319 4.37901378 -34.08203125 6.16015625 C-36 7 -36 7 -38 7 C-38.061875 7.556875 -38.12375 8.11375 -38.1875 8.6875 C-40.05024659 13.98916336 -45.74217718 17.53433026 -50 21 C-49.690625 20.236875 -49.38125 19.47375 -49.0625 18.6875 C-48.32106407 16.81210323 -47.63771783 14.91315348 -47 13 C-33.54555777 0.16034774 -18.29543655 -5.62936509 0 0 Z " fill="#72F1E7" transform="translate(250,5)"/>
<path d="M0 0 C5.59682403 3.50845685 10.68727604 7.97427344 14.35546875 13.4765625 C11.88046875 12.9815625 11.88046875 12.9815625 9.35546875 12.4765625 C9.35546875 11.8165625 9.35546875 11.1565625 9.35546875 10.4765625 C8.63359375 10.2496875 7.91171875 10.0228125 7.16796875 9.7890625 C3.82346319 8.22829324 1.9147326 6.1031754 -0.64453125 3.4765625 C-1.63453125 3.1465625 -2.62453125 2.8165625 -3.64453125 2.4765625 C-3.64453125 1.8165625 -3.64453125 1.1565625 -3.64453125 0.4765625 C-13.53809712 0.34990234 -22.90929801 0.72921294 -32.64453125 2.4765625 C-24.02274641 -4.8187939 -9.91778679 -4.61833288 0 0 Z " fill="#3FE881" transform="translate(101.64453125,138.5234375)"/>
<path d="M0 0 C0.33 0 0.66 0 1 0 C1.36625971 4.51720311 1.36625971 4.51720311 -0.375 6.8125 C-2 8 -2 8 -4 8 C-4 8.66 -4 9.32 -4 10 C-5.62192758 11.7102358 -7.29869472 13.36870729 -9 15 C-9.90878906 15.93199219 -10.81757812 16.86398437 -11.75390625 17.82421875 C-12.69007875 18.77867077 -13.6262768 19.73309771 -14.5625 20.6875 C-15.26536133 21.41549805 -15.26536133 21.41549805 -15.98242188 22.15820312 C-20.66625815 26.9075476 -20.66625815 26.9075476 -24 28 C-24.99 27.67 -25.98 27.34 -27 27 C-24.31677754 24.28740084 -21.627651 21.58072673 -18.9375 18.875 C-18.18533203 18.11445313 -17.43316406 17.35390625 -16.65820312 16.5703125 C-12.70895718 12.60397025 -8.72796078 8.78488655 -4.40014648 5.23242188 C-2.64180621 3.68471452 -1.32948884 1.92037277 0 0 Z " fill="#41F286" transform="translate(131,267)"/>
<path d="M0 0 C0.66 0.33 1.32 0.66 2 1 C-4.19751596 8.53751941 -4.19751596 8.53751941 -7.51171875 11.2265625 C-9.5169236 13.61596671 -9.71932334 15.62634489 -10.1875 18.6875 C-10.34605469 19.68136719 -10.50460938 20.67523438 -10.66796875 21.69921875 C-10.77753906 22.45847656 -10.88710937 23.21773437 -11 24 C-11.66 24 -12.32 24 -13 24 C-12.5854252 30.17573496 -11.53168407 35.32902769 -9 41 C-8.34 41.33 -7.68 41.66 -7 42 C-7 43.65 -7 45.3 -7 47 C-6.34 47.33 -5.68 47.66 -5 48 C-5.99 48 -6.98 48 -8 48 C-14.21256269 40.09310204 -14.87595785 31.75929062 -14.25146484 22.02441406 C-13.38563747 15.05408339 -10.34095573 8.57185811 -5 4 C-4.34 4 -3.68 4 -3 4 C-3 3.34 -3 2.68 -3 2 C-2.01 1.34 -1.02 0.68 0 0 Z " fill="#62F3E7" transform="translate(150,87)"/>
<path d="M0 0 C-0.33 0.99 -0.66 1.98 -1 3 C-1.62648438 3.02578125 -2.25296875 3.0515625 -2.8984375 3.078125 C-3.71570313 3.13484375 -4.53296875 3.1915625 -5.375 3.25 C-6.18710937 3.29640625 -6.99921875 3.3428125 -7.8359375 3.390625 C-10.161385 3.77548797 -10.161385 3.77548797 -11.10546875 5.88671875 C-11.40066406 6.58410156 -11.69585938 7.28148437 -12 8 C-13.96185416 9.71140469 -15.96302383 11.37873325 -18 13 C-18.5775 13.598125 -19.155 14.19625 -19.75 14.8125 C-21 16 -21 16 -23 16 C-23 16.66 -23 17.32 -23 18 C-23.66 18 -24.32 18 -25 18 C-25.33 18.99 -25.66 19.98 -26 21 C-26.66 21 -27.32 21 -28 21 C-26.7580393 17.56072421 -25.44259716 14.74792181 -23 12 C-22.34 12 -21.68 12 -21 12 C-21 11.34 -21 10.68 -21 10 C-15.94701068 4.31335607 -7.88214376 -1.01705081 0 0 Z " fill="#23F172" transform="translate(36,225)"/>
<path d="M0 0 C2.90383954 1.45191977 3.05546917 3.22362386 4.125 6.25 C7.61804853 17.3332066 6.80748247 27.4469897 2 38 C0.22878038 41.18096585 -1.58301113 44.26534974 -4 47 C-4.66 47 -5.32 47 -6 47 C-5.67 46.443125 -5.34 45.88625 -5 45.3125 C-3.82635137 43.0183468 -3.82635137 43.0183468 -4 40.375 C-4 38 -4 38 -2 36 C-1.01 36 -0.02 36 1 36 C4.00953471 25.27853258 4.64827551 14.26494175 0 4 C0 2.68 0 1.36 0 0 Z " fill="#71F3E8" transform="translate(271,24)"/>
<path d="M0 0 C3.8312768 2.3171195 6.78322311 5.12504506 9.609375 8.578125 C8.619375 8.908125 7.629375 9.238125 6.609375 9.578125 C5.949375 9.248125 5.289375 8.918125 4.609375 8.578125 C4.609375 7.588125 4.609375 6.598125 4.609375 5.578125 C3.289375 5.578125 1.969375 5.578125 0.609375 5.578125 C-0.390625 4.578125 -1.390625 3.578125 -2.390625 2.578125 C-4.99673577 1.85615338 -4.99673577 1.85615338 -7.390625 1.578125 C-7.390625 0.918125 -7.390625 0.258125 -7.390625 -0.421875 C-14.980625 -0.421875 -22.570625 -0.421875 -30.390625 -0.421875 C-21.55714644 -6.3108607 -9.12337003 -4.29044969 0 0 Z " fill="#38EA7D" transform="translate(402.390625,139.421875)"/>
<path d="M0 0 C0 3 0 3 -2.4375 5.5 C-3.283125 6.325 -4.12875 7.15 -5 8 C-5.33 8.99 -5.66 9.98 -6 11 C-6.66 11 -7.32 11 -8 11 C-8.33 11.99 -8.66 12.98 -9 14 C-9.99 14.33 -10.98 14.66 -12 15 C-13.70855022 18.00007271 -13.70855022 18.00007271 -15 21 C-15.99 21 -16.98 21 -18 21 C-18.061875 21.5775 -18.12375 22.155 -18.1875 22.75 C-19.35526841 25.98382021 -21.16375839 27.13065894 -24 29 C-26.8125 29.75 -26.8125 29.75 -29 30 C-23.47349666 23.25919575 -17.30550441 17.1928871 -11.125 11.0625 C-10.04403726 9.98656273 -8.96330617 8.91039269 -7.8828125 7.83398438 C-5.25787359 5.21996708 -2.62981372 2.60911404 0 0 Z " fill="#37F07E" transform="translate(307,200)"/>
<path d="M0 0 C1.125 3.75 1.125 3.75 0 6 C-1.02514969 17.37704056 -0.8608519 28.5187881 4 39 C3.01 39.495 3.01 39.495 2 40 C1.18082358 38.27398621 0.36993984 36.5440353 -0.4375 34.8125 C-0.88996094 33.84957031 -1.34242188 32.88664062 -1.80859375 31.89453125 C-5.90138343 21.95106518 -4.5860349 10.90340208 -1 1 C-0.67 0.67 -0.34 0.34 0 0 Z " fill="#50EC8F" transform="translate(420,218)"/>
<path d="M0 0 C0.66 0.33 1.32 0.66 2 1 C2 1.99 2 2.98 2 4 C3.98 3.67 5.96 3.34 8 3 C8.66 4.65 9.32 6.3 10 8 C10.78375 7.938125 11.5675 7.87625 12.375 7.8125 C13.674375 7.9053125 13.674375 7.9053125 15 8 C15.99 9.485 15.99 9.485 17 11 C19.63082192 11.40271513 19.63082192 11.40271513 22.5625 11.25 C23.55378906 11.23453125 24.54507812 11.2190625 25.56640625 11.203125 C27.94708641 11.26819387 27.94708641 11.26819387 29 10 C31.67058851 9.85884839 34.32432238 9.95752893 37 10 C32.97123052 14.02876948 27.60095722 13.30930531 22.26171875 13.31469727 C11.91903944 13.11821426 5.25758498 9.21703981 -2 2 C-1.34 1.34 -0.68 0.68 0 0 Z " fill="#44ED86" transform="translate(390,351)"/>
<path d="M0 0 C0.99 0.495 0.99 0.495 2 1 C2 1.66 2 2.32 2 3 C2.66 3 3.32 3 4 3 C4.967407 4.68231469 5.92347446 6.37115197 6.875 8.0625 C7.40867187 9.00222656 7.94234375 9.94195312 8.4921875 10.91015625 C13.04985748 20.24983749 13.81028402 31.53802504 10.5 41.4375 C9.7575 43.2009375 9.7575 43.2009375 9 45 C8.67 45 8.34 45 8 45 C8 42.03 8 39.06 8 36 C8.66 36 9.32 36 10 36 C9.68967972 23.49409284 8.13916822 14.15636775 0.953125 3.59375 C0 2 0 2 0 0 Z " fill="#6EF2E7" transform="translate(293,428)"/>
<path d="M0 0 C3.32322183 3.32322183 2.96388278 7.26561661 3.1875 11.8125 C3.00292631 20.65525767 0.43217608 27.92931429 -5 35 C-5.66 35 -6.32 35 -7 35 C-7 35.66 -7 36.32 -7 37 C-7.66 37 -8.32 37 -9 37 C-9 37.66 -9 38.32 -9 39 C-9.66 39 -10.32 39 -11 39 C-11 39.66 -11 40.32 -11 41 C-11.66 41 -12.32 41 -13 41 C-13.33 41.66 -13.66 42.32 -14 43 C-13.67 40.69 -13.34 38.38 -13 36 C-11.35 36 -9.7 36 -8 36 C-8 34.68 -8 33.36 -8 32 C-6.625 30.25 -6.625 30.25 -5 29 C-4.34 29 -3.68 29 -3 29 C-3 27.02 -3 25.04 -3 23 C-2.34 22.67 -1.68 22.34 -1 22 C-0.05862745 19.17588235 0.11725382 17.47081968 0.09765625 14.55078125 C0.09443359 13.70322266 0.09121094 12.85566406 0.08789062 11.98242188 C0.07951172 11.10134766 0.07113281 10.22027344 0.0625 9.3125 C0.05798828 8.41982422 0.05347656 7.52714844 0.04882812 6.60742188 C0.03704983 4.40488013 0.02060164 2.20247401 0 0 Z " fill="#50E890" transform="translate(416,157)"/>
<path d="M0 0 C1.98 0 3.96 0 6 0 C6.33 1.98 6.66 3.96 7 6 C4.525 4.515 4.525 4.515 2 3 C1.44570313 3.5775 0.89140625 4.155 0.3203125 4.75 C-0.40414063 5.4925 -1.12859375 6.235 -1.875 7 C-2.59429687 7.7425 -3.31359375 8.485 -4.0546875 9.25 C-6 11 -6 11 -8 11 C-8 11.66 -8 12.32 -8 13 C-8.66 13 -9.32 13 -10 13 C-10 13.66 -10 14.32 -10 15 C-10.66 15 -11.32 15 -12 15 C-12.20625 15.556875 -12.4125 16.11375 -12.625 16.6875 C-14.55000774 19.92501302 -17.03850902 21.68231141 -20 24 C-18.25 19.125 -18.25 19.125 -16 18 C-15.34786708 15.97536745 -15.34786708 15.97536745 -15 14 C-14.01 14 -13.02 14 -12 14 C-12 13.01 -12 12.02 -12 11 C-11.01 11 -10.02 11 -9 11 C-9 10.34 -9 9.68 -9 9 C-8.01 9 -7.02 9 -6 9 C-6 7.68 -6 6.36 -6 5 C-5.01 5 -4.02 5 -3 5 C-3 4.01 -3 3.02 -3 2 C-2.01 2 -1.02 2 0 2 C0 1.34 0 0.68 0 0 Z " fill="#69F7EA" transform="translate(262,364)"/>
<path d="M0 0 C4.64225249 3.6474841 6.59362172 8.41036387 8 14 C9.15104283 24.71620877 8.15493055 34.05207102 1.3125 42.625 C0.549375 43.40875 -0.21375 44.1925 -1 45 C-1.33 45 -1.66 45 -2 45 C-2.125 42.125 -2.125 42.125 -2 39 C-1.34 38.34 -0.68 37.68 0 37 C0.99 37 1.98 37 3 37 C2.938125 36.278125 2.87625 35.55625 2.8125 34.8125 C3 32 3 32 4.48046875 29.6796875 C7.12877435 25.00941078 6.71966255 20.21269093 6 15 C4.93532026 12.23717516 3.70176255 9.7969848 2.19140625 7.25390625 C0.90937744 4.82855994 0.41416529 2.69921519 0 0 Z " fill="#70F2E7" transform="translate(356,364)"/>
<path d="M0 0 C3.125 -0.1875 3.125 -0.1875 6 0 C-0.90147587 7.10446045 -7.95950141 13.64838393 -18.36328125 14.16796875 C-19.66652344 14.17441406 -20.96976563 14.18085938 -22.3125 14.1875 C-23.60800781 14.20167969 -24.90351562 14.21585937 -26.23828125 14.23046875 C-29.8662588 14.00819391 -32.6332728 13.32059222 -36 12 C-32.79217914 11.04623433 -29.91812604 10.88378819 -26.578125 10.90234375 C-25.55332031 10.90556641 -24.52851562 10.90878906 -23.47265625 10.91210938 C-22.40917969 10.92048828 -21.34570312 10.92886719 -20.25 10.9375 C-19.17105469 10.94201172 -18.09210938 10.94652344 -16.98046875 10.95117188 C-14.32025617 10.96294273 -11.66015635 10.97938601 -9 11 C-8.67 10.01 -8.34 9.02 -8 8 C-7.0409375 7.7834375 -7.0409375 7.7834375 -6.0625 7.5625 C-3.8317241 7.2096398 -3.8317241 7.2096398 -2.875 5.125 C-2.441875 4.073125 -2.441875 4.073125 -2 3 C-1.34 2.01 -0.68 1.02 0 0 Z " fill="#4AE689" transform="translate(137,350)"/>
<path d="M0 0 C7.75557939 6.30280516 13.1844754 11.88696065 15 22 C15.54489728 28.68350568 15.29717034 34.68278155 13 41 C11.63732946 36.19092803 11.98356956 31.41179605 12.12695312 26.46289062 C12.20068101 21.57516584 11.70894267 17.60283165 10 13 C9.34 12.67 8.68 12.34 8 12 C8 11.34 8 10.68 8 10 C7.01 10 6.02 10 5 10 C5 8.68 5 7.36 5 6 C3.35 5.67 1.7 5.34 0 5 C0 3.35 0 1.7 0 0 Z " fill="#3BE480" transform="translate(432,303)"/>
<path d="M0 0 C3.37462715 0.54723683 5.08235 1.0549 8 3 C13.54535679 5.45789531 18.86610765 5.26441045 24.8125 5.1875 C26.26172852 5.1865332 26.26172852 5.1865332 27.74023438 5.18554688 C32.20643305 5.56835016 32.20643305 5.56835016 36 4 C37.99958364 3.95919217 40.00045254 3.95745644 42 4 C37.82275699 8.17724301 32.47942228 8.28214653 26.8671875 8.37988281 C26.00351562 8.37827148 25.13984375 8.37666016 24.25 8.375 C22.91582031 8.37258301 22.91582031 8.37258301 21.5546875 8.37011719 C13.65085905 8.222355 7.48814935 6.9898423 1.375 1.75 C0.694375 0.88375 0.694375 0.88375 0 0 Z " fill="#7FF2EB" transform="translate(240,489)"/>
<path d="M0 0 C-10.16660942 8.17749019 -21.31658231 9.24912447 -34 8 C-37.27494283 7.28050498 -39.91606204 6.34571838 -43 5 C-43 4.67 -43 4.34 -43 4 C-34.66969147 4.85299456 -34.66969147 4.85299456 -31.4375 5.5625 C-24.82555791 6.74925884 -19.353012 5.80002007 -13 4 C-12.28328125 3.87496094 -11.5665625 3.74992187 -10.828125 3.62109375 C-10.22484375 3.41613281 -9.6215625 3.21117188 -9 3 C-8.67 2.01 -8.34 1.02 -8 0 C-4.71303767 -0.79953138 -3.28976808 -1.09658936 0 0 Z " fill="#60F2E6" transform="translate(261,76)"/>
<path d="M0 0 C0.33 0.99 0.66 1.98 1 3 C-1.57055192 6.7569605 -4.79128011 9.79128011 -8 13 C-8.86242035 14.05581158 -9.71657976 15.11842288 -10.5625 16.1875 C-13.93693694 20.08108108 -13.93693694 20.08108108 -17 21 C-17.99 20.67 -18.98 20.34 -20 20 C-18.625 18.5 -18.625 18.5 -17 17 C-16.34 17 -15.68 17 -15 17 C-14.599021 16.11006348 -14.599021 16.11006348 -14.18994141 15.20214844 C-12.98415007 12.97066755 -11.7641905 11.5335201 -9.9609375 9.765625 C-9.38085938 9.19199219 -8.80078125 8.61835938 -8.203125 8.02734375 C-7.59984375 7.44082031 -6.9965625 6.85429687 -6.375 6.25 C-5.76398438 5.64800781 -5.15296875 5.04601562 -4.5234375 4.42578125 C-3.02011376 2.94594695 -1.51065144 1.47235324 0 0 Z " fill="#5EF6E6" transform="translate(218,317)"/>
<path d="M0 0 C0.33 0.66 0.66 1.32 1 2 C0.67 2.99 0.34 3.98 0 5 C-0.66 5 -1.32 5 -2 5 C-2 6.32 -2 7.64 -2 9 C-2.66 9 -3.32 9 -4 9 C-3.938125 10.051875 -3.938125 10.051875 -3.875 11.125 C-4.02176073 14.50049674 -4.50487825 18.50487825 -7 21 C-7.23363881 22.84891946 -7.41303635 24.70488031 -7.5625 26.5625 C-7.64628906 27.57441406 -7.73007813 28.58632813 -7.81640625 29.62890625 C-7.87699219 30.41136719 -7.93757812 31.19382812 -8 32 C-8.33 32 -8.66 32 -9 32 C-9.49711356 20.87017978 -9.63119389 11.45954632 -2.25 2.375 C-1.13625 1.199375 -1.13625 1.199375 0 0 Z " fill="#55F6E8" transform="translate(145,390)"/>
<path d="M0 0 C1.60379341 -0.05416188 3.20811406 -0.09286638 4.8125 -0.125 C5.70582031 -0.14820313 6.59914063 -0.17140625 7.51953125 -0.1953125 C10 0 10 0 13 2 C15.22485741 2.27478373 15.22485741 2.27478373 17.66796875 2.1953125 C18.56064453 2.18886719 19.45332031 2.18242187 20.37304688 2.17578125 C21.76620117 2.15064453 21.76620117 2.15064453 23.1875 2.125 C24.12787109 2.11597656 25.06824219 2.10695313 26.03710938 2.09765625 C28.35832968 2.07409056 30.67903644 2.04119116 33 2 C26.48258823 6.34494118 18.561356 5.5787519 11 5 C7.15642412 3.99751836 3.59810163 2.67562321 0 1 C0 0.67 0 0.34 0 0 Z " fill="#4FE88C" transform="translate(25,300)"/>
<path d="M0 0 C1.18360107 0.01196411 1.18360107 0.01196411 2.39111328 0.02416992 C9.51606199 0.19864945 16.75257922 1.06507922 22.0625 6.375 C22.0625 7.035 22.0625 7.695 22.0625 8.375 C19.5875 7.88 19.5875 7.88 17.0625 7.375 C17.0625 6.715 17.0625 6.055 17.0625 5.375 C6.0980632 2.75476475 -2.07628723 1.18052566 -12.9375 4.375 C-15.13671875 3.93359375 -15.13671875 3.93359375 -16.9375 3.375 C-11.06983552 0.85743227 -6.36297686 -0.11602357 0 0 Z " fill="#68EFE6" transform="translate(330.9375,53.625)"/>
<path d="M0 0 C-7.68684288 6.75510435 -16.05868974 8.51284537 -26 8 C-28.00720923 7.71325582 -30.01178687 7.39764263 -32 7 C-32 6.67 -32 6.34 -32 6 C-30.40671875 5.90912109 -30.40671875 5.90912109 -28.78125 5.81640625 C-18.36284897 5.20729762 -18.36284897 5.20729762 -8 4 C-7.896875 3.360625 -7.79375 2.72125 -7.6875 2.0625 C-7.460625 1.381875 -7.23375 0.70125 -7 0 C-3.86650268 -1.04449911 -3.01031744 -0.93423645 0 0 Z " fill="#6EF3E8" transform="translate(353,411)"/>
<path d="M0 0 C0.33 1.32 0.66 2.64 1 4 C0.443125 4.391875 -0.11375 4.78375 -0.6875 5.1875 C-3.34766851 7.27249694 -5.64167565 9.5812058 -8 12 C-8.5775 12.556875 -9.155 13.11375 -9.75 13.6875 C-11.12192353 14.99967873 -11.12192353 14.99967873 -12 17 C-12.66 17 -13.32 17 -14 17 C-14 17.66 -14 18.32 -14 19 C-14.66 19 -15.32 19 -16 19 C-16 19.66 -16 20.32 -16 21 C-17.65 21.33 -19.3 21.66 -21 22 C-20.01 20.515 -20.01 20.515 -19 19 C-18.34 19 -17.68 19 -17 19 C-17 18.34 -17 17.68 -17 17 C-16.34 17 -15.68 17 -15 17 C-15 16.34 -15 15.68 -15 15 C-14.34 15 -13.68 15 -13 15 C-12.78601563 14.45859375 -12.57203125 13.9171875 -12.3515625 13.359375 C-10.51922057 10.1607203 -8.00203394 7.79035516 -5.375 5.25 C-4.859375 4.74339844 -4.34375 4.23679687 -3.8125 3.71484375 C-2.54616661 2.47196098 -1.2736856 1.23534724 0 0 Z " fill="#6AF3E7" transform="translate(179,356)"/>
<path d="M0 0 C0.33 0.66 0.66 1.32 1 2 C-0.87785537 6.34254054 -3.56221939 8.21764518 -7.359375 10.73046875 C-9.5714031 12.44215716 -10.62737737 14.5979104 -12 17 C-12.99 17 -13.98 17 -15 17 C-15.33 18.32 -15.66 19.64 -16 21 C-17.32 20.67 -18.64 20.34 -20 20 C-13.4 13.4 -6.8 6.8 0 0 Z " fill="#54F2E5" transform="translate(268,102)"/>
<path d="M0 0 C1.47968324 0.14049518 2.95874516 0.28754826 4.4375 0.4375 C5.67306641 0.55931641 5.67306641 0.55931641 6.93359375 0.68359375 C9 1 9 1 10 2 C11.60163916 2.09919077 13.20779918 2.12969898 14.8125 2.125 C15.68519531 2.12757813 16.55789062 2.13015625 17.45703125 2.1328125 C19.95258735 2.08480901 19.95258735 2.08480901 22.12109375 1.46484375 C24.88343292 0.78143759 27.24925536 1.43734769 30 2 C26.64839718 5.35160282 22.38344386 5.16897884 17.8125 5.25 C11.66872537 5.20005061 4.51408601 4.51408601 0 0 Z " fill="#5FF3E8" transform="translate(152,442)"/>
<path d="M0 0 C-0.1875 1.875 -0.1875 1.875 -1 4 C-1.763125 4.28875 -2.52625 4.5775 -3.3125 4.875 C-6.99055679 6.41465168 -7.95503049 8.63569533 -10 12 C-10.680625 12.845625 -11.36125 13.69125 -12.0625 14.5625 C-13.95358964 16.94161277 -15.4939551 19.36442142 -17 22 C-17.33 21.34 -17.66 20.68 -18 20 C-15.62496557 13.23362588 -11.73103019 7.35962498 -6 3 C-5.34 3 -4.68 3 -4 3 C-4 2.34 -4 1.68 -4 1 C-2 0 -2 0 0 0 Z " fill="#6DF4E7" transform="translate(244,422)"/>
<path d="M0 0 C3.63 0.33 7.26 0.66 11 1 C11 1.66 11 2.32 11 3 C21.395 2.505 21.395 2.505 32 2 C25.93619705 6.0425353 19.08935371 5.60052831 12 5 C7.87360271 3.95122644 3.94610586 2.59266255 0 1 C0 0.67 0 0.34 0 0 Z " fill="#5AE894" transform="translate(438,272)"/>
<path d="M0 0 C1.32 0 2.64 0 4 0 C2.60249952 3.15835107 0.94801766 5.32272825 -1.5 7.75 C-2.1084375 8.36359375 -2.716875 8.9771875 -3.34375 9.609375 C-5 11 -5 11 -7 11 C-7 11.66 -7 12.32 -7 13 C-7.66 13 -8.32 13 -9 13 C-9 13.66 -9 14.32 -9 15 C-9.66 15 -10.32 15 -11 15 C-11 13.02 -11 11.04 -11 9 C-9.35 9 -7.7 9 -6 9 C-5.67 7.68 -5.34 6.36 -5 5 C-4.01 5 -3.02 5 -2 5 C-2 4.34 -2 3.68 -2 3 C-1.01 3 -0.02 3 1 3 C0.67 2.01 0.34 1.02 0 0 Z " fill="#73F7EC" transform="translate(205,420)"/>
<path d="M0 0 C5.66129431 4.69766975 10.85228904 9.74723372 16 15 C12.2734375 16.078125 12.2734375 16.078125 9.8125 15.375 C8 14 8 14 7.25 11.375 C7.1675 10.59125 7.085 9.8075 7 9 C6.01 8.67 5.02 8.34 4 8 C4 7.34 4 6.68 4 6 C3.01 5.67 2.02 5.34 1 5 C0.67 3.35 0.34 1.7 0 0 Z " fill="#4AEC8B" transform="translate(152,188)"/>
<path d="M0 0 C0.98339111 3.08083369 0.95714575 4.91259505 0.0625 8 C-1.83936341 15.82739702 -1.83568105 23.43818385 1 31 C0.55859375 33.15625 0.55859375 33.15625 0 35 C-4.91723332 22.47497174 -4.21456881 12.64370642 0 0 Z " fill="#78F4EB" transform="translate(199,26)"/>
<path d="M0 0 C5.82765434 5.35558178 6.46314555 12.62469298 6.94921875 20.14453125 C7.01031017 23.57974901 6.68729826 26.63987515 6 30 C5.67 30 5.34 30 5 30 C5 24.39 5 18.78 5 13 C4.01 13 3.02 13 2 13 C1.66127487 11.58461283 1.32925376 10.16762037 1 8.75 C0.814375 7.96109375 0.62875 7.1721875 0.4375 6.359375 C0 4 0 4 0 0 Z " fill="#50E68F" transform="translate(491,215)"/>
<path d="M0 0 C4.77734178 1.29211729 7.64446021 3.06974888 11.25 6.4375 C12.10078125 7.21996094 12.9515625 8.00242188 13.828125 8.80859375 C16 11 16 11 18 14 C15.525 13.505 15.525 13.505 13 13 C13 12.34 13 11.68 13 11 C12.278125 10.773125 11.55625 10.54625 10.8125 10.3125 C7.46799444 8.75173074 5.55926385 6.6266129 3 4 C2.01 3.67 1.02 3.34 0 3 C0 2.01 0 1.02 0 0 Z " fill="#3FED84" transform="translate(98,138)"/>
<path d="M0 0 C6.23455575 7.12520657 6.32776336 14.73997511 6.30078125 23.70703125 C6 27 6 27 4 30 C4.01160156 29.16855469 4.02320313 28.33710937 4.03515625 27.48046875 C4.04417969 26.39378906 4.05320312 25.30710937 4.0625 24.1875 C4.07410156 23.10855469 4.08570313 22.02960938 4.09765625 20.91796875 C4.13624766 17.93487831 4.13624766 17.93487831 3 15 C2.96045766 12.66700175 2.95598268 10.33291811 3 8 C2.34 8 1.68 8 1 8 C0.67 5.36 0.34 2.72 0 0 Z " fill="#61F0E6" transform="translate(358,67)"/>
<path d="M0 0 C0.33 0.66 0.66 1.32 1 2 C0.67 2.99 0.34 3.98 0 5 C-0.66 5 -1.32 5 -2 5 C-2.28875 5.598125 -2.5775 6.19625 -2.875 6.8125 C-5.50927804 11.9347073 -7.97969759 13.48984879 -13 16 C-13.66 15.67 -14.32 15.34 -15 15 C-10.05 10.05 -5.1 5.1 0 0 Z " fill="#55F3E6" transform="translate(284,86)"/>
<path d="M0 0 C1.32 0 2.64 0 4 0 C5.125 4.75 5.125 4.75 4 7 C5.32 7.33 6.64 7.66 8 8 C8 8.66 8 9.32 8 10 C8.66 10 9.32 10 10 10 C9.67 11.32 9.34 12.64 9 14 C5.37 10.37 1.74 6.74 -2 3 C-1.34 2.67 -0.68 2.34 0 2 C0 1.34 0 0.68 0 0 Z " fill="#2CF474" transform="translate(378,338)"/>
<path d="M0 0 C6.3189807 2.65764736 10.57639283 8.670461 14.0625 14.375 C15 17 15 17 14 20 C14 19.34 14 18.68 14 18 C13.34 18 12.68 18 12 18 C11.67 16.02 11.34 14.04 11 12 C10.34 12 9.68 12 9 12 C6.875 10.1875 6.875 10.1875 5 8 C5 7.01 5 6.02 5 5 C3.35 4.67 1.7 4.34 0 4 C0 2.68 0 1.36 0 0 Z " fill="#3FE27E" transform="translate(67,232)"/>
<path d="M0 0 C5.96933213 2.98466607 10.80412682 6.76027544 15 12 C15.7265625 14.25 15.7265625 14.25 16 16 C12.99390037 14.99796679 11.93823179 14.39971554 10 12 C10 11.01 10 10.02 10 9 C8.88625 8.566875 8.88625 8.566875 7.75 8.125 C6.8425 7.75375 5.935 7.3825 5 7 C4.2575 6.731875 3.515 6.46375 2.75 6.1875 C1 5 1 5 0.25 2.375 C0.1675 1.59125 0.085 0.8075 0 0 Z " fill="#60F3E3" transform="translate(255,8)"/>
<path d="M0 0 C1.65 0 3.3 0 5 0 C4.67 0.66 4.34 1.32 4 2 C3.34 2 2.68 2 2 2 C2 2.66 2 3.32 2 4 C1.34 4 0.68 4 0 4 C-0.25523437 4.58265625 -0.51046875 5.1653125 -0.7734375 5.765625 C-2.11741087 8.21388223 -3.61810296 9.81743248 -5.625 11.75 C-6.57246094 12.67039062 -6.57246094 12.67039062 -7.5390625 13.609375 C-8.02117187 14.06828125 -8.50328125 14.5271875 -9 15 C-9.33 13.68 -9.66 12.36 -10 11 C-9.34 11 -8.68 11 -8 11 C-8 10.01 -8 9.02 -8 8 C-6.68 7.67 -5.36 7.34 -4 7 C-3.67 5.68 -3.34 4.36 -3 3 C-2.34 3 -1.68 3 -1 3 C-0.67 2.01 -0.34 1.02 0 0 Z " fill="#62F6E9" transform="translate(237,388)"/>
<path d="M0 0 C1.32 0.66 2.64 1.32 4 2 C-1.28 7.28 -6.56 12.56 -12 18 C-12.33 17.01 -12.66 16.02 -13 15 C-11.68 14.34 -10.36 13.68 -9 13 C-9 11.68 -9 10.36 -9 9 C-7.68 9 -6.36 9 -5 9 C-4.34 7.68 -3.68 6.36 -3 5 C-2.34 5 -1.68 5 -1 5 C-0.67 3.35 -0.34 1.7 0 0 Z " fill="#60ED99" transform="translate(197,291)"/>
<path d="M0 0 C0.99 0.33 1.98 0.66 3 1 C0.34104848 6.82923987 -2.6208545 11.32891147 -7 16 C-7.66 14.68 -8.32 13.36 -9 12 C-7.68 11.34 -6.36 10.68 -5 10 C-5 8.68 -5 7.36 -5 6 C-4.01 6 -3.02 6 -2 6 C-2 5.01 -2 4.02 -2 3 C-1.34 3 -0.68 3 0 3 C0 2.01 0 1.02 0 0 Z " fill="#55ED90" transform="translate(79,278)"/>
<path d="M0 0 C0 0.66 0 1.32 0 2 C-2.64738916 3.4606285 -3.89448334 4 -7 4 C-7 4.66 -7 5.32 -7 6 C-7.66 6 -8.32 6 -9 6 C-9 6.99 -9 7.98 -9 9 C-9.66 9 -10.32 9 -11 9 C-11.4021875 9.8353125 -11.4021875 9.8353125 -11.8125 10.6875 C-13.10899496 13.21225334 -14.42476323 15.63714484 -16 18 C-16.66 18 -17.32 18 -18 18 C-16.68021929 12.58889909 -14.06714573 8.73558494 -10 5 C-9.34 5 -8.68 5 -8 5 C-8 4.34 -8 3.68 -8 3 C-2.25 0 -2.25 0 0 0 Z " fill="#54EA8E" transform="translate(439,200)"/>
<path d="M0 0 C1.65 0.33 3.3 0.66 5 1 C0.60502098 7.32532275 -4.45050476 12.67248457 -10 18 C-10.33 17.01 -10.66 16.02 -11 15 C-10.0409375 14.5978125 -10.0409375 14.5978125 -9.0625 14.1875 C-6.66868314 13.11332248 -6.66868314 13.11332248 -6 10 C-5.34 10 -4.68 10 -4 10 C-2.26337666 6.77484237 -1.1094072 3.48670834 0 0 Z " fill="#80F6EC" transform="translate(353,105)"/>
<path d="M0 0 C1.98 0 3.96 0 6 0 C2.09489511 5.50719921 -2.09717644 10.35827355 -7 15 C-7.33 13.68 -7.66 12.36 -8 11 C-7.01 11 -6.02 11 -5 11 C-5 10.34 -5 9.68 -5 9 C-4.34 9 -3.68 9 -3 9 C-3 7.68 -3 6.36 -3 5 C-2.01 4.67 -1.02 4.34 0 4 C0 2.68 0 1.36 0 0 Z " fill="#6BF5EA" transform="translate(276,182)"/>
<path d="M0 0 C0 3.87484441 -0.78296412 6.84657629 -3 10 C-5.80576007 12.10688943 -8.69836288 13.79712651 -12 15 C-12.66 14.67 -13.32 14.34 -14 14 C-12.88121617 12.82737096 -11.75476949 11.66204862 -10.625 10.5 C-9.99851562 9.8503125 -9.37203125 9.200625 -8.7265625 8.53125 C-7 7 -7 7 -5 7 C-5 6.34 -5 5.68 -5 5 C-4.34 5 -3.68 5 -3 5 C-2.690625 4.360625 -2.38125 3.72125 -2.0625 3.0625 C-1 1 -1 1 0 0 Z " fill="#54F190" transform="translate(350,157)"/>
<path d="M0 0 C0 3 0 3 -1.42578125 4.71875 C-2.04839844 5.3065625 -2.67101562 5.894375 -3.3125 6.5 C-3.92738281 7.0878125 -4.54226562 7.675625 -5.17578125 8.28125 C-5.77777344 8.8484375 -6.37976563 9.415625 -7 10 C-7.515625 10.56332031 -8.03125 11.12664062 -8.5625 11.70703125 C-10 13 -10 13 -12.6875 13.1875 C-13.450625 13.125625 -14.21375 13.06375 -15 13 C-15.12375 12.195625 -15.2475 11.39125 -15.375 10.5625 C-15.684375 9.2940625 -15.684375 9.2940625 -16 8 C-16.66 7.67 -17.32 7.34 -18 7 C-17.67 6.34 -17.34 5.68 -17 5 C-15.2925002 6.28062485 -13.62626404 7.61767557 -12 9 C-12 9.66 -12 10.32 -12 11 C-5.82747447 5.68570186 -5.82747447 5.68570186 0 0 Z " fill="#71F2E8" transform="translate(247,123)"/>
<path d="M0 0 C0 4.22023957 -1.85196466 6.668279 -4.5625 9.8125 C-6 11 -6 11 -8 11 C-8 11.66 -8 12.32 -8 13 C-11.46153846 16 -11.46153846 16 -14 16 C-12.34136495 11.67495164 -9.128959 8.90581175 -5.875 5.75 C-5.31167969 5.19570313 -4.74835938 4.64140625 -4.16796875 4.0703125 C-2.78313972 2.70895515 -1.39216796 1.35385141 0 0 Z " fill="#6DF4E7" transform="translate(251,284)"/>
<path d="M0 0 C0.33 0.66 0.66 1.32 1 2 C0.34 2 -0.32 2 -1 2 C-1.226875 2.556875 -1.45375 3.11375 -1.6875 3.6875 C-3.37550036 6.66159588 -5.46676517 8.72008865 -8 11 C-8.66 11 -9.32 11 -10 11 C-9.34 12.32 -8.68 13.64 -8 15 C-8.99 14.67 -9.98 14.34 -11 14 C-10.67 11.69 -10.34 9.38 -10 7 C-8.35 6.67 -6.7 6.34 -5 6 C-5.33 4.68 -5.66 3.36 -6 2 C-4.02 1.34 -2.04 0.68 0 0 Z " fill="#5EED98" transform="translate(376,224)"/>
<path d="M0 0 C3.125 -0.1875 3.125 -0.1875 6 0 C-3.66666667 9.95098039 -3.66666667 9.95098039 -10 12 C-9.25 10.0625 -9.25 10.0625 -8 8 C-6.66666667 7.66666667 -5.33333333 7.33333333 -4 7 C-2.81669817 5.13355094 -2.81669817 5.13355094 -2 3 C-1.34 2.01 -0.68 1.02 0 0 Z " fill="#50EF91" transform="translate(137,350)"/>
<path d="M0 0 C0.66 0 1.32 0 2 0 C0.83655771 6.27978488 -4.24817664 11.92700855 -9 16 C-9.66 16 -10.32 16 -11 16 C-11 15.34 -11 14.68 -11 14 C-10.34 14 -9.68 14 -9 14 C-9 13.34 -9 12.68 -9 12 C-8.34 12 -7.68 12 -7 12 C-6.34 10.68 -5.68 9.36 -5 8 C-4.34 8 -3.68 8 -3 8 C-2.67 6.02 -2.34 4.04 -2 2 C-1.34 2 -0.68 2 0 2 C0 1.34 0 0.68 0 0 Z " fill="#85F4ED" transform="translate(299,473)"/>
<path d="M0 0 C0.33 0.66 0.66 1.32 1 2 C1.90685547 2.45052734 1.90685547 2.45052734 2.83203125 2.91015625 C5.25043803 4.12589587 6.78643495 5.51993981 8.6875 7.4375 C9.28949219 8.03433594 9.89148438 8.63117188 10.51171875 9.24609375 C12 11 12 11 13 14 C12.34 14 11.68 14 11 14 C11 13.34 11 12.68 11 12 C10.01 12 9.02 12 8 12 C6.97971135 10.68212715 5.98028616 9.34789347 5 8 C4.01 7.67 3.02 7.34 2 7 C0 4 0 4 0 0 Z " fill="#4FED8A" transform="translate(378,248)"/>
<path d="M0 0 C2.5 1.125 2.5 1.125 5 3 C5.3125 6.1875 5.3125 6.1875 5 9 C5.99 9 6.98 9 8 9 C8.33 10.65 8.66 12.3 9 14 C1.51708428 7.84965831 1.51708428 7.84965831 -1 4 C-0.34 4 0.32 4 1 4 C0.67 2.68 0.34 1.36 0 0 Z " fill="#36F17D" transform="translate(281,240)"/>
<path d="M0 0 C-0.93972656 0.61488281 -0.93972656 0.61488281 -1.8984375 1.2421875 C-2.71570313 1.78101563 -3.53296875 2.31984375 -4.375 2.875 C-5.59316406 3.67550781 -5.59316406 3.67550781 -6.8359375 4.4921875 C-9.07594096 5.95865055 -9.07594096 5.95865055 -11 8 C-13.32275177 8.40047444 -15.65739357 8.7397104 -18 9 C-17.34 8.67 -16.68 8.34 -16 8 C-16 7.34 -16 6.68 -16 6 C-13.35261084 4.5393715 -12.10551666 4 -9 4 C-9 3.01 -9 2.02 -9 1 C-5.47051709 -0.66670026 -3.71727674 -1.13583456 0 0 Z " fill="#2AEF75" transform="translate(448,198)"/>
<path d="M0 0 C0.33 1.32 0.66 2.64 1 4 C0.34 4 -0.32 4 -1 4 C-1 4.66 -1 5.32 -1 6 C-1.66 6 -2.32 6 -3 6 C-3 6.66 -3 7.32 -3 8 C-5.25 10.6875 -5.25 10.6875 -8 13 C-9.32 12.67 -10.64 12.34 -12 12 C-8.04 8.04 -4.08 4.08 0 0 Z " fill="#57EF92" transform="translate(320,187)"/>
<path d="M0 0 C4.52615993 3.67832017 8.39424999 7.41086363 12 12 C11.67 12.66 11.34 13.32 11 14 C10.01 13.34 9.02 12.68 8 12 C8 11.34 8 10.68 8 10 C7.01 10 6.02 10 5 10 C5 8.68 5 7.36 5 6 C3.35 5.67 1.7 5.34 0 5 C0 3.35 0 1.7 0 0 Z " fill="#4AEB86" transform="translate(432,303)"/>
<path d="M0 0 C4.52615993 3.67832017 8.39424999 7.41086363 12 12 C7.58510474 11.49544054 5.10530159 10.18922866 2 7 C0.6875 3.25 0.6875 3.25 0 0 Z " fill="#44ED88" transform="translate(184,220)"/>
<path d="M0 0 C0 3 0 3 -2.4375 5.5 C-3.283125 6.325 -4.12875 7.15 -5 8 C-5.33 8.99 -5.66 9.98 -6 11 C-6.66 11 -7.32 11 -8 11 C-8.33 11.99 -8.66 12.98 -9 14 C-12.0625 15.1875 -12.0625 15.1875 -15 16 C-10.30233025 10.33870569 -5.25276628 5.14771096 0 0 Z " fill="#5BF093" transform="translate(307,200)"/>
<path d="M0 0 C0.99 0.33 1.98 0.66 3 1 C-3.435 6.94 -3.435 6.94 -10 13 C-10.33 11.68 -10.66 10.36 -11 9 C-10.34 9 -9.68 9 -9 9 C-8.67 8.01 -8.34 7.02 -8 6 C-2.62857143 2 -2.62857143 2 0 2 C0 1.34 0 0.68 0 0 Z " fill="#5AED95" transform="translate(180,310)"/>
<path d="M0 0 C4.52615993 3.67832017 8.39424999 7.41086363 12 12 C10.35 11.67 8.7 11.34 7 11 C6.67 10.01 6.34 9.02 6 8 C3.98491642 7.26676204 3.98491642 7.26676204 2 7 C1.34 4.69 0.68 2.38 0 0 Z " fill="#47ED89" transform="translate(136,172)"/>
<path d="M0 0 C1.98 0.99 1.98 0.99 4 2 C3.6596875 3.546875 3.6596875 3.546875 3.3125 5.125 C2.95829173 9.51718258 3.89935616 11.23634645 6 15 C5.67 15.66 5.34 16.32 5 17 C0.52540645 11.85421741 -0.53105949 8.75259771 -0.17578125 1.94140625 C-0.11777344 1.30074219 -0.05976562 0.66007813 0 0 Z " fill="#0FF26A" transform="translate(56,175)"/>
<path d="M0 0 C-2.45779255 5.73484927 -7.29001964 9.1463797 -12 13 C-11.690625 12.236875 -11.38125 11.47375 -11.0625 10.6875 C-10.32106407 8.81210323 -9.63771783 6.91315348 -9 5 C-3.65116279 0 -3.65116279 0 0 0 Z " fill="#5FF3E8" transform="translate(212,13)"/>
<path d="M0 0 C0.33 0.66 0.66 1.32 1 2 C-0.25945355 3.67528263 -1.53293682 5.34002614 -2.8125 7 C-3.87404297 8.3921875 -3.87404297 8.3921875 -4.95703125 9.8125 C-5.63121094 10.534375 -6.30539063 11.25625 -7 12 C-7.99 12 -8.98 12 -10 12 C-10.33 12.99 -10.66 13.98 -11 15 C-11.66 14.67 -12.32 14.34 -13 14 C-11.58474822 12.41540185 -10.1677358 10.83237609 -8.75 9.25 C-7.96109375 8.36828125 -7.1721875 7.4865625 -6.359375 6.578125 C-4.29407328 4.32133835 -2.18264936 2.14260074 0 0 Z " fill="#62F099" transform="translate(103,295)"/>
<path d="M0 0 C4.8547265 0.41611941 6.80439079 2.45891952 10 6 C10.66 6.66 11.32 7.32 12 8 C11.625 10.125 11.625 10.125 11 12 C9.16364422 10.19047409 7.33083792 8.37759362 5.5 6.5625 C4.97535156 6.04623047 4.45070313 5.52996094 3.91015625 4.99804688 C2.58775448 3.68423213 1.29164432 2.34406495 0 1 C0 0.67 0 0.34 0 0 Z " fill="#47ED89" transform="translate(316,280)"/>
<path d="M0 0 C0.99 0 1.98 0 3 0 C3.33 0.66 3.66 1.32 4 2 C4.64453125 2.12246094 5.2890625 2.24492187 5.953125 2.37109375 C8 3 8 3 9.046875 4.84765625 C9.39492188 5.94400391 9.39492188 5.94400391 9.75 7.0625 C9.99234375 7.79597656 10.2346875 8.52945312 10.484375 9.28515625 C10.65453125 9.85105469 10.8246875 10.41695313 11 11 C7.584241 9.55661511 5.63973737 7.75105832 3.25 4.9375 C2.63640625 4.22464844 2.0228125 3.51179688 1.390625 2.77734375 C0 1 0 1 0 0 Z " fill="#74F6ED" transform="translate(276,377)"/>
<path d="M0 0 C2.97 0.495 2.97 0.495 6 1 C6 1.99 6 2.98 6 4 C6.66 4 7.32 4 8 4 C8 4.99 8 5.98 8 7 C8.99 7 9.98 7 11 7 C11.33 8.65 11.66 10.3 12 12 C7.47384007 8.32167983 3.60575001 4.58913637 0 0 Z " fill="#4AED8B" transform="translate(348,312)"/>
<path d="M0 0 C4.52615993 3.67832017 8.39424999 7.41086363 12 12 C7.25 11.25 7.25 11.25 5 9 C5 8.01 5 7.02 5 6 C3.68 5.67 2.36 5.34 1 5 C0.67 3.35 0.34 1.7 0 0 Z " fill="#4AEC8B" transform="translate(168,204)"/>
<path d="M0 0 C12.6875 4.375 12.6875 4.375 15 9 C12.0625 8.625 12.0625 8.625 9 8 C8.67 7.34 8.34 6.68 8 6 C6.11736119 5.09656316 6.11736119 5.09656316 3.9375 4.375 C3.20402344 4.11460937 2.47054688 3.85421875 1.71484375 3.5859375 C1.14894531 3.39257812 0.58304687 3.19921875 0 3 C0 2.01 0 1.02 0 0 Z " fill="#4DEC8B" transform="translate(470,198)"/>
<path d="M0 0 C0.33 0.66 0.66 1.32 1 2 C0.67 2.99 0.34 3.98 0 5 C-0.99 5 -1.98 5 -3 5 C-3 6.32 -3 7.64 -3 9 C-3.99 9 -4.98 9 -6 9 C-6.33 10.32 -6.66 11.64 -7 13 C-8.32 12.34 -9.64 11.68 -11 11 C-10.01 10.67 -9.02 10.34 -8 10 C-8 9.34 -8 8.68 -8 8 C-7.34 8 -6.68 8 -6 8 C-6 7.34 -6 6.68 -6 6 C-5.34 6 -4.68 6 -4 6 C-3.71125 5.38125 -3.4225 4.7625 -3.125 4.125 C-2 2 -2 2 0 0 Z " fill="#77F5E9" transform="translate(157,378)"/>
<path d="M0 0 C2.05078125 0.03255208 4.1015625 0.06510417 6.15234375 0.09765625 C2.42140413 3.82859587 -1.89113971 3.28074654 -6.84765625 3.28515625 C-7.57210938 3.29740234 -8.2965625 3.30964844 -9.04296875 3.32226562 C-12.85465923 3.33281458 -14.60128665 3.26190265 -17.84765625 1.09765625 C-16.77644531 1.10925781 -15.70523437 1.12085938 -14.6015625 1.1328125 C-13.20442882 1.14218924 -11.80729326 1.15128956 -10.41015625 1.16015625 C-9.70310547 1.16853516 -8.99605469 1.17691406 -8.26757812 1.18554688 C-6.46072066 1.19419213 -4.65378022 1.14985636 -2.84765625 1.09765625 C-1.84765625 0.09765625 -1.84765625 0.09765625 0 0 Z " fill="#53E48F" transform="translate(420.84765625,360.90234375)"/>
<path d="M0 0 C-0.33 0.99 -0.66 1.98 -1 3 C-4.16015625 3.94921875 -4.16015625 3.94921875 -8.0625 4.6875 C-9.35285156 4.93886719 -10.64320312 5.19023437 -11.97265625 5.44921875 C-12.97167969 5.63097656 -13.97070312 5.81273437 -15 6 C-10.96644381 1.63642557 -5.98204389 -0.54382217 0 0 Z " fill="#56EE93" transform="translate(36,225)"/>
<path d="M0 0 C0.66 0 1.32 0 2 0 C2 2 2 2 -0.25 4.3125 C-1.1575 5.199375 -2.065 6.08625 -3 7 C-3.721875 7.928125 -4.44375 8.85625 -5.1875 9.8125 C-5.785625 10.534375 -6.38375 11.25625 -7 12 C-7.66 12 -8.32 12 -9 12 C-9 12.99 -9 13.98 -9 15 C-9.66 15 -10.32 15 -11 15 C-9.2645544 8.82952674 -4.42122925 4.42122925 0 0 Z " fill="#5BEB94" transform="translate(67,141)"/>
<path d="M0 0 C0.66 0 1.32 0 2 0 C2.66 2.64 3.32 5.28 4 8 C4.99 8 5.98 8 7 8 C7 8.99 7 9.98 7 11 C7.66 11 8.32 11 9 11 C9.33 12.65 9.66 14.3 10 16 C4.60109989 12.60640564 2.34844778 7.73620862 0 2 C0 1.34 0 0.68 0 0 Z " fill="#82F6ED" transform="translate(226,469)"/>
<path d="M0 0 C1.32 0.99 2.64 1.98 4 3 C3.44449305 6.59905908 2.25112752 7.99909799 -0.5625 10.25 C-1.20316406 10.77078125 -1.84382812 11.2915625 -2.50390625 11.828125 C-2.99761719 12.21484375 -3.49132812 12.6015625 -4 13 C-4 11.02 -4 9.04 -4 7 C-2.68 7.33 -1.36 7.66 0 8 C0 5.36 0 2.72 0 0 Z " fill="#5EEB96" transform="translate(224,260)"/>
<path d="M0 0 C4.52615993 3.67832017 8.39424999 7.41086363 12 12 C9.625 11.75 9.625 11.75 7 11 C6.30062468 9.68352881 5.63270867 8.34977849 5 7 C2.94999129 6.19471111 2.94999129 6.19471111 1 6 C0.67 4.02 0.34 2.04 0 0 Z " fill="#4CEC8D" transform="translate(202,238)"/>
<path d="M0 0 C2.97 0.495 2.97 0.495 6 1 C6 2.32 6 3.64 6 5 C6.598125 5.103125 7.19625 5.20625 7.8125 5.3125 C10.28243264 6.08876455 11.32251235 7.07088921 13 9 C12.67 9.99 12.34 10.98 12 12 C11.01 11.34 10.02 10.68 9 10 C9 9.34 9 8.68 9 8 C8.34 8 7.68 8 7 8 C7 7.34 7 6.68 7 6 C6.401875 5.7525 5.80375 5.505 5.1875 5.25 C2.71352479 3.83629988 1.56629745 2.34944617 0 0 Z " fill="#68EE9B" transform="translate(101,231)"/>
<path d="M0 0 C-7.07721931 0.12109311 -13.97195301 -0.14626761 -21 -1 C-21 -1.33 -21 -1.66 -21 -2 C-14.19315506 -3.65571904 -6.17222659 -3.54975473 0 0 Z " fill="#6AEA9B" transform="translate(469,198)"/>
<path d="M0 0 C1.32 0 2.64 0 4 0 C4 0.66 4 1.32 4 2 C4.763125 2.103125 5.52625 2.20625 6.3125 2.3125 C9.18416484 3.04711194 10.23042094 3.6716065 12 6 C12 6.66 12 7.32 12 8 C6.80421104 6.63919813 3.86388964 4.58789752 0 1 C0 0.67 0 0.34 0 0 Z " fill="#6DF5EB" transform="translate(308,409)"/>
<path d="M0 0 C0.99 0 1.98 0 3 0 C1.44396229 3.81936528 -0.95604931 6.26044438 -4 9 C-4.66 9 -5.32 9 -6 9 C-6 9.66 -6 10.32 -6 11 C-6.66 10.67 -7.32 10.34 -8 10 C-7.01 8.02 -6.02 6.04 -5 4 C-3.68 4 -2.36 4 -1 4 C-0.67 2.68 -0.34 1.36 0 0 Z " fill="#6EEFA5" transform="translate(385,213)"/>
<path d="M0 0 C1.4540625 0.0309375 1.4540625 0.0309375 2.9375 0.0625 C0.59110565 2.40889435 -1.03079449 3.01086475 -4.33081055 3.17602539 C-5.19488525 3.17078857 -6.05895996 3.16555176 -6.94921875 3.16015625 C-7.88701172 3.15693359 -8.82480469 3.15371094 -9.79101562 3.15039062 C-10.76748047 3.14201172 -11.74394531 3.13363281 -12.75 3.125 C-14.23209961 3.11823242 -14.23209961 3.11823242 -15.74414062 3.11132812 C-18.18365474 3.09954303 -20.62304689 3.08309011 -23.0625 3.0625 C-23.0625 2.7325 -23.0625 2.4025 -23.0625 2.0625 C-22.49217041 2.03744385 -21.92184082 2.0123877 -21.33422852 1.98657227 C-18.76423843 1.87093451 -16.19464473 1.74806376 -13.625 1.625 C-12.72716797 1.58568359 -11.82933594 1.54636719 -10.90429688 1.50585938 C-10.05029297 1.46396484 -9.19628906 1.42207031 -8.31640625 1.37890625 C-7.52564697 1.34224854 -6.7348877 1.30559082 -5.92016602 1.26782227 C-3.06581789 0.95233971 -3.33399253 0.06804066 0 0 Z " fill="#5EF4E8" transform="translate(279.0625,492.9375)"/>
<path d="M0 0 C1.32 0.33 2.64 0.66 4 1 C0.56638098 4.63559661 -2.7973607 7.36113346 -7 10 C-7.33 9.34 -7.66 8.68 -8 8 C-7 6 -7 6 -4.5625 4.5625 C-1.7644028 3.10335955 -1.7644028 3.10335955 0 0 Z " fill="#53EB8D" transform="translate(436,351)"/>
<path d="M0 0 C0.66 1.32 1.32 2.64 2 4 C2.886875 3.67 3.77375 3.34 4.6875 3 C7.70923347 2.08777857 9.88373706 1.81669042 13 2 C9.92307254 4.6815279 7.80265337 5.42087807 3.75 5.6875 C2.85796875 5.75324219 1.9659375 5.81898438 1.046875 5.88671875 C0.37140625 5.92410156 -0.3040625 5.96148437 -1 6 C-1.042721 4.33388095 -1.04063832 2.66617115 -1 1 C-0.67 0.67 -0.34 0.34 0 0 Z " fill="#23F274" transform="translate(51,297)"/>
<path d="M0 0 C3.94139078 1.66751148 6.7892812 4.22710649 10 7 C7 7 7 7 4 6 C3.67 5.34 3.34 4.68 3 4 C0.36 4.66 -2.28 5.32 -5 6 C-4.67 5.34 -4.34 4.68 -4 4 C-3.34 4 -2.68 4 -2 4 C-2 3.34 -2 2.68 -2 2 C-1.34 2 -0.68 2 0 2 C0 1.34 0 0.68 0 0 Z " fill="#7CF3EA" transform="translate(263,272)"/>
<path d="M0 0 C3.57104439 1.87949705 5.54744301 3.17053157 7 7 C7.66 7 8.32 7 9 7 C9 7.66 9 8.32 9 9 C6.69 8.67 4.38 8.34 2 8 C1.34 5.36 0.68 2.72 0 0 Z " fill="#40EF80" transform="translate(368,239)"/>
<path d="M0 0 C2.97 0.495 2.97 0.495 6 1 C6.33 2.32 6.66 3.64 7 5 C7.66 5 8.32 5 9 5 C9.33 6.65 9.66 8.3 10 10 C2.51708428 3.84965831 2.51708428 3.84965831 0 0 Z " fill="#49ED8C" transform="translate(366,330)"/>
<path d="M0 0 C0.33 0.66 0.66 1.32 1 2 C-0.32514849 5.53372931 -1.13925833 7.52659208 -4.5 9.375 C-7 10 -7 10 -10 10 C-8.625 8.5 -8.625 8.5 -7 7 C-6.34 7 -5.68 7 -5 7 C-4.731875 6.401875 -4.46375 5.80375 -4.1875 5.1875 C-3.01506533 3.02775192 -1.80630718 1.64209744 0 0 Z " fill="#80F5EC" transform="translate(229,306)"/>
<path d="M0 0 C2.97 0.495 2.97 0.495 6 1 C6.33 2.32 6.66 3.64 7 5 C7.66 5 8.32 5 9 5 C9.33 6.65 9.66 8.3 10 10 C2.51708428 3.84965831 2.51708428 3.84965831 0 0 Z " fill="#49EC8B" transform="translate(334,298)"/>
<path d="M0 0 C2.97 0.495 2.97 0.495 6 1 C6.33 2.32 6.66 3.64 7 5 C7.66 5 8.32 5 9 5 C9.33 6.65 9.66 8.3 10 10 C2.51708428 3.84965831 2.51708428 3.84965831 0 0 Z " fill="#49ED8B" transform="translate(302,266)"/>
<path d="M0 0 C0 3.44360632 -0.79591532 4.74795392 -2.5 7.6875 C-2.9640625 8.49574219 -3.428125 9.30398438 -3.90625 10.13671875 C-4.44765625 11.05904297 -4.44765625 11.05904297 -5 12 C-5.33 12 -5.66 12 -6 12 C-6.33 10.02 -6.66 8.04 -7 6 C-6.34 6 -5.68 6 -5 6 C-4.67 5.01 -4.34 4.02 -4 3 C-1.9375 1.3125 -1.9375 1.3125 0 0 Z " fill="#57F092" transform="translate(494,250)"/>
<path d="M0 0 C1.32 0.33 2.64 0.66 4 1 C4 1.66 4 2.32 4 3 C5.32 3 6.64 3 8 3 C8.33 5.31 8.66 7.62 9 10 C7 8.625 7 8.625 5 7 C5 6.34 5 5.68 5 5 C4.34 5 3.68 5 3 5 C3 4.34 3 3.68 3 3 C2.34 3 1.68 3 1 3 C0.67 2.01 0.34 1.02 0 0 Z " fill="#54EE91" transform="translate(92,221)"/>
<path d="M0 0 C2.31 0.66 4.62 1.32 7 2 C7.33 3.65 7.66 5.3 8 7 C8.66 7 9.32 7 10 7 C9.67 8.32 9.34 9.64 9 11 C7.49703315 9.35687553 5.99769719 7.71042916 4.5 6.0625 C3.6646875 5.14597656 2.829375 4.22945312 1.96875 3.28515625 C0 1 0 1 0 0 Z " fill="#62F6E7" transform="translate(158,150)"/>
<path d="M0 0 C1 3 1 3 0.25 5.0625 C-1 7 -1 7 -4 9 C-5.32 8.67 -6.64 8.34 -8 8 C-5.36 5.36 -2.72 2.72 0 0 Z " fill="#4CF4E5" transform="translate(300,70)"/>
<path d="M0 0 C1.67542976 0.28604898 3.34385343 0.61781233 5 1 C4.06862408 2.29608947 3.1296434 3.58671632 2.1875 4.875 C1.66542969 5.59429687 1.14335937 6.31359375 0.60546875 7.0546875 C-1 9 -1 9 -4 11 C-3.42647107 7.12867972 -1.51295648 4.91827204 1 2 C0.34 1.67 -0.32 1.34 -1 1 C-0.67 0.67 -0.34 0.34 0 0 Z " fill="#71F5E9" transform="translate(314,144)"/>
<path d="M0 0 C0.66 0.33 1.32 0.66 2 1 C-2.87850467 7.23364486 -2.87850467 7.23364486 -7 9 C-7.33 9.66 -7.66 10.32 -8 11 C-8.66 10.67 -9.32 10.34 -10 10 C-8.38405168 7.95880212 -6.7143618 5.95927063 -5 4 C-4.34 4 -3.68 4 -3 4 C-3 3.34 -3 2.68 -3 2 C-2.01 1.34 -1.02 0.68 0 0 Z " fill="#7BF5EA" transform="translate(150,87)"/>
<path d="M0 0 C0.33 0.66 0.66 1.32 1 2 C0.67 2.99 0.34 3.98 0 5 C-0.66 5 -1.32 5 -2 5 C-2 6.32 -2 7.64 -2 9 C-3.375 10.75 -3.375 10.75 -5 12 C-5.66 12 -6.32 12 -7 12 C-5.63855967 6.80177328 -3.53269829 3.90456127 0 0 Z " fill="#69F5E8" transform="translate(145,390)"/>
<path d="M0 0 C1.98 0 3.96 0 6 0 C8.10865385 3.47307692 8.10865385 3.47307692 7.55859375 6.140625 C7.37425781 6.75421875 7.18992188 7.3678125 7 8 C5.83035398 6.8572081 4.66435444 5.71068285 3.5 4.5625 C2.8503125 3.92441406 2.200625 3.28632813 1.53125 2.62890625 C0 1 0 1 0 0 Z " fill="#54F9E6" transform="translate(192,184)"/>
<path d="M0 0 C4.50884026 2.31883213 6.93906776 5.06451569 10 9 C8.35 8.67 6.7 8.34 5 8 C5 7.01 5 6.02 5 5 C3.68 5 2.36 5 1 5 C0.67 3.35 0.34 1.7 0 0 Z " fill="#5BEF97" transform="translate(402,140)"/>
<path d="M0 0 C1.14926266 0.95421808 2.29430541 1.91352045 3.4375 2.875 C4.07558594 3.40867187 4.71367187 3.94234375 5.37109375 4.4921875 C7 6 7 6 8 8 C6.02 8.33 4.04 8.66 2 9 C2 7.35 2 5.7 2 4 C1.34 4 0.68 4 0 4 C0 2.68 0 1.36 0 0 Z " fill="#62F7EA" transform="translate(217,116)"/>
<path d="M0 0 C2.375 0.3125 2.375 0.3125 5 1 C5.66 1.99 6.32 2.98 7 4 C9.05003955 5.19232613 9.05003955 5.19232613 11 6 C10.67 6.66 10.34 7.32 10 8 C5.56983933 6.60766379 3.08449737 4.43701135 0 1 C0 0.67 0 0.34 0 0 Z " fill="#50ED8E" transform="translate(15,292)"/>
<path d="M0 0 C0.66 0.33 1.32 0.66 2 1 C1.34 2.32 0.68 3.64 0 5 C-0.66 5 -1.32 5 -2 5 C-2 5.99 -2 6.98 -2 8 C-2.66 8 -3.32 8 -4 8 C-4.33 8.99 -4.66 9.98 -5 11 C-5.66 11 -6.32 11 -7 11 C-5.7580393 7.56072421 -4.44259716 4.74792181 -2 2 C-1.34 2 -0.68 2 0 2 C0 1.34 0 0.68 0 0 Z " fill="#54E88D" transform="translate(15,235)"/>
<path d="M0 0 C2.140625 0.3984375 2.140625 0.3984375 4 1 C2.85760183 2.33627775 1.71098945 3.66895388 0.5625 5 C-0.07558594 5.7425 -0.71367187 6.485 -1.37109375 7.25 C-2.17740234 8.11625 -2.17740234 8.11625 -3 9 C-3.33 9 -3.66 9 -4 9 C-4.37010337 5.6690697 -4.27461204 4.37268777 -2.25 1.625 C-1.5075 1.08875 -0.765 0.5525 0 0 Z " fill="#49ED8C" transform="translate(205,283)"/>
<path d="M0 0 C7.48291572 6.15034169 7.48291572 6.15034169 10 10 C8.35 9.67 6.7 9.34 5 9 C5 8.01 5 7.02 5 6 C3.68 5.67 2.36 5.34 1 5 C0.67 3.35 0.34 1.7 0 0 Z " fill="#51EB8F" transform="translate(120,156)"/>
<path d="M0 0 C0.66 0.33 1.32 0.66 2 1 C0.7934375 1.8971875 0.7934375 1.8971875 -0.4375 2.8125 C-3.22327984 4.80947276 -3.22327984 4.80947276 -4 8 C-5.98 8.33 -7.96 8.66 -10 9 C-9.0919838 7.86800647 -8.17316174 6.74467637 -7.25 5.625 C-6.73953125 4.99851563 -6.2290625 4.37203125 -5.703125 3.7265625 C-3.89125541 1.88975893 -2.41535913 0.89348651 0 0 Z " fill="#57F091" transform="translate(370,139)"/>
<path d="M0 0 C2.97 0.495 2.97 0.495 6 1 C6 1.66 6 2.32 6 3 C6.99 3 7.98 3 9 3 C8.34 4.32 7.68 5.64 7 7 C5.83040013 6.02433888 4.66438823 5.044375 3.5 4.0625 C2.8503125 3.51722656 2.200625 2.97195313 1.53125 2.41015625 C1.0259375 1.94480469 0.520625 1.47945313 0 1 C0 0.67 0 0.34 0 0 Z " fill="#62F8E9" transform="translate(269,370)"/>
<path d="M0 0 C0.99 0 1.98 0 3 0 C1.52278578 3.45201639 -0.43794001 5.64961936 -3.125 8.25 C-3.84945312 8.95640625 -4.57390625 9.6628125 -5.3203125 10.390625 C-5.87460938 10.92171875 -6.42890625 11.4528125 -7 12 C-7 8.43013844 -6.3954571 7.97905092 -4.0625 5.4375 C-1.75540038 2.91000271 -1.75540038 2.91000271 0 0 Z " fill="#0DF563" transform="translate(104,295)"/>
<path d="M0 0 C1.65 0 3.3 0 5 0 C4.67 0.99 4.34 1.98 4 3 C5.32 3 6.64 3 8 3 C8 4.65 8 6.3 8 8 C6.85073734 7.04578192 5.70569459 6.08647955 4.5625 5.125 C3.92441406 4.59132813 3.28632813 4.05765625 2.62890625 3.5078125 C1 2 1 2 0 0 Z " fill="#6DF6EB" transform="translate(295,396)"/>
<path d="M0 0 C-0.33 1.98 -0.66 3.96 -1 6 C-3.03833424 4.7260411 -5.03852126 3.38938077 -7 2 C-7 1.34 -7 0.68 -7 0 C-2.25 -1.125 -2.25 -1.125 0 0 Z " fill="#59F8E9" transform="translate(294,388)"/>
<path d="M0 0 C0.66 0.33 1.32 0.66 2 1 C2 1.99 2 2.98 2 4 C3.98 3.67 5.96 3.34 8 3 C8.66 4.65 9.32 6.3 10 8 C8.37061226 7.40776866 6.74658872 6.80076372 5.125 6.1875 C3.76761719 5.68283203 3.76761719 5.68283203 2.3828125 5.16796875 C0 4 0 4 -2 1 C-1.34 0.67 -0.68 0.34 0 0 Z " fill="#28F375" transform="translate(390,351)"/>
<path d="M0 0 C1.46224799 0.42423244 2.91973412 0.86490245 4.375 1.3125 C5.18710937 1.55613281 5.99921875 1.79976562 6.8359375 2.05078125 C9 3 9 3 11 6 C7.06845568 6 4.4934597 4.74672985 1 3 C0.67 2.01 0.34 1.02 0 0 Z " fill="#5CEC97" transform="translate(56,226)"/>
<path d="M0 0 C2.31 0.66 4.62 1.32 7 2 C7.33 3.98 7.66 5.96 8 8 C6.85073734 7.04578192 5.70569459 6.08647955 4.5625 5.125 C3.92441406 4.59132812 3.28632813 4.05765625 2.62890625 3.5078125 C1 2 1 2 0 0 Z " fill="#5EF7E6" transform="translate(216,208)"/>
<path d="M0 0 C-1.11575573 3.34726719 -1.51344622 3.62079748 -4.4375 5.25 C-6.2009375 6.11625 -6.2009375 6.11625 -8 7 C-8.66 6.67 -9.32 6.34 -10 6 C-4.30769231 0 -4.30769231 0 0 0 Z " fill="#47F4E4" transform="translate(279,95)"/>
<path d="M0 0 C9.41002278 0.96355353 9.41002278 0.96355353 14 2 C13.67 2.66 13.34 3.32 13 4 C8.28596212 3.52060632 4.33420699 3.03165952 0 1 C0 0.67 0 0.34 0 0 Z " fill="#76F0EC" transform="translate(218,80)"/>
<path d="M0 0 C3.03393954 3.46735947 4.9351577 7.52949826 6 12 C5.67 12.99 5.34 13.98 5 15 C4.34 12.69 3.68 10.38 3 8 C2.34 8 1.68 8 1 8 C0.67 5.36 0.34 2.72 0 0 Z " fill="#73F3EA" transform="translate(358,67)"/>
<path d="M0 0 C1.953125 0.7109375 1.953125 0.7109375 4 2 C4.609375 4.1640625 4.609375 4.1640625 4.75 6.625 C4.80671875 7.44226563 4.8634375 8.25953125 4.921875 9.1015625 C4.94765625 9.72804688 4.9734375 10.35453125 5 11 C0 4.63636364 0 4.63636364 0 0 Z " fill="#6FF5E9" transform="translate(137,422)"/>
<path d="M0 0 C-4.625 4 -4.625 4 -8 4 C-7.6875 2.0625 -7.6875 2.0625 -7 0 C-3.86650268 -1.04449911 -3.01031744 -0.93423645 0 0 Z " fill="#5AF7E7" transform="translate(353,411)"/>
<path d="M0 0 C1.32 0 2.64 0 4 0 C2.55746343 3.36591866 0.66735273 5.51047079 -2 8 C-2.125 5.125 -2.125 5.125 -2 2 C-1.34 1.34 -0.68 0.68 0 0 Z " fill="#60F7E9" transform="translate(356,401)"/>
<path d="M0 0 C-2.31 2.31 -4.62 4.62 -7 7 C-7.33 5.68 -7.66 4.36 -8 3 C-7.34 3 -6.68 3 -6 3 C-6 2.01 -6 1.02 -6 0 C-2.25 -1.125 -2.25 -1.125 0 0 Z " fill="#83F6EE" transform="translate(235,396)"/>
<path d="M0 0 C0.33 1.32 0.66 2.64 1 4 C0.34 4 -0.32 4 -1 4 C-1 5.65 -1 7.3 -1 9 C-2.32 9 -3.64 9 -5 9 C-3.7508258 5.54074837 -2.32472205 2.85306797 0 0 Z " fill="#56ED96" transform="translate(89,310)"/>
<path d="M0 0 C0.33 1.32 0.66 2.64 1 4 C0.01 4.33 -0.98 4.66 -2 5 C-2 5.99 -2 6.98 -2 8 C-1.34 8.33 -0.68 8.66 0 9 C-0.99 9 -1.98 9 -3 9 C-3.66 7.68 -4.32 6.36 -5 5 C-4.34 5 -3.68 5 -3 5 C-3 4.34 -3 3.68 -3 3 C-2.34 3 -1.68 3 -1 3 C-0.67 2.01 -0.34 1.02 0 0 Z " fill="#60EB99" transform="translate(277,230)"/>
<path d="M0 0 C4.43090471 1.20842856 6.98112756 2.51668565 10 6 C6.44219804 5.39009109 3.3171411 4.4216319 0 3 C0 2.01 0 1.02 0 0 Z " fill="#54EC95" transform="translate(98,138)"/>
<path d="M0 0 C1.14926266 0.95421808 2.29430541 1.91352045 3.4375 2.875 C4.07558594 3.40867187 4.71367187 3.94234375 5.37109375 4.4921875 C7 6 7 6 8 8 C6.68 8 5.36 8 4 8 C4 7.34 4 6.68 4 6 C3.34 6 2.68 6 2 6 C2 5.34 2 4.68 2 4 C1.34 4 0.68 4 0 4 C0 2.68 0 1.36 0 0 Z " fill="#71F5EB" transform="translate(204,103)"/>
<path d="M0 0 C3.73487777 0.4979837 5.81237635 0.87491756 9 3 C9 3.99 9 4.98 9 6 C5.06326356 4.68775452 2.77280706 3.08089673 0 0 Z " fill="#75F5E8" transform="translate(209,74)"/>
<path d="M0 0 C1.12894876 0.93274109 2.25300876 1.87140122 3.375 2.8125 C4.00148438 3.33457031 4.62796875 3.85664063 5.2734375 4.39453125 C7 6 7 6 9 9 C6.03 8.505 6.03 8.505 3 8 C3 7.01 3 6.02 3 5 C2.0206121 3.97980427 1.02104551 2.97850195 0 2 C0 1.34 0 0.68 0 0 Z " fill="#64F3E7" transform="translate(295,303)"/>
<path d="M0 0 C2.31 0.33 4.62 0.66 7 1 C7.33 2.98 7.66 4.96 8 7 C6.66382648 6.02471263 5.3311249 5.04466681 4 4.0625 C3.2575 3.51722656 2.515 2.97195312 1.75 2.41015625 C1.1725 1.94480469 0.595 1.47945312 0 1 C0 0.67 0 0.34 0 0 Z " fill="#51EF91" transform="translate(73,203)"/>
<path d="M0 0 C0.66 0.33 1.32 0.66 2 1 C0.55609075 4.80666984 -1.34952803 6.26602582 -5 8 C-5.66 7.67 -6.32 7.34 -7 7 C-4.69 4.69 -2.38 2.38 0 0 Z " fill="#48EF88" transform="translate(335,172)"/>
<path d="M0 0 C1.65 0.33 3.3 0.66 5 1 C3.02 3.31 1.04 5.62 -1 8 C-1.66 7.67 -2.32 7.34 -3 7 C-2.690625 6.401875 -2.38125 5.80375 -2.0625 5.1875 C-0.89790296 2.91043228 -0.89790296 2.91043228 0 0 Z " fill="#62F5E6" transform="translate(353,105)"/>
<path d="M0 0 C0.66 0.33 1.32 0.66 2 1 C0.68 2.65 -0.64 4.3 -2 6 C-3.875 5.6875 -3.875 5.6875 -6 5 C-6.66 4.01 -7.32 3.02 -8 2 C-6.02 2.66 -4.04 3.32 -2 4 C-1.34 2.68 -0.68 1.36 0 0 Z " fill="#82F2EA" transform="translate(240,222)"/>
<path d="M0 0 C0.99 0.33 1.98 0.66 3 1 C1.88121617 2.17262904 0.75476949 3.33795138 -0.375 4.5 C-1.00148438 5.1496875 -1.62796875 5.799375 -2.2734375 6.46875 C-4 8 -4 8 -6 8 C-4.95125002 5.37812506 -4.35068687 4.20628639 -1.875 2.75 C-1.25625 2.5025 -0.6375 2.255 0 2 C0 1.34 0 0.68 0 0 Z " fill="#7AF5EB" transform="translate(339,123)"/>
<path d="M0 0 C1.65 0 3.3 0 5 0 C4.67 1.32 4.34 2.64 4 4 C3.34 4 2.68 4 2 4 C2 4.66 2 5.32 2 6 C1.34 6 0.68 6 0 6 C0 4.02 0 2.04 0 0 Z " fill="#53F6E8" transform="translate(194,429)"/>
<path d="M0 0 C3.16115776 1.36983503 3.9927092 1.9890638 6 5 C3.69 5 1.38 5 -1 5 C-0.67 3.35 -0.34 1.7 0 0 Z " fill="#62F6E8" transform="translate(343,351)"/>
<path d="M0 0 C4.875 4.75 4.875 4.75 6 7 C3.03 6.505 3.03 6.505 0 6 C0 4.02 0 2.04 0 0 Z " fill="#5DF6E6" transform="translate(314,321)"/>
<path d="M0 0 C1.98 0 3.96 0 6 0 C5.01 0.495 5.01 0.495 4 1 C4 1.66 4 2.32 4 3 C2.35 3.66 0.7 4.32 -1 5 C-0.67 3.35 -0.34 1.7 0 0 Z " fill="#4CED89" transform="translate(65,294)"/>
<path d="M0 0 C1.16959987 0.97566112 2.33561177 1.955625 3.5 2.9375 C4.1496875 3.48277344 4.799375 4.02804687 5.46875 4.58984375 C5.9740625 5.05519531 6.479375 5.52054687 7 6 C7 6.33 7 6.66 7 7 C5.35 7 3.7 7 2 7 C1.34 4.69 0.68 2.38 0 0 Z " fill="#3BEC7D" transform="translate(391,262)"/>
<path d="M0 0 C0.66 0 1.32 0 2 0 C0.49776416 4.20626034 -2.28550034 5.73900021 -6 8 C-6 6.68 -6 5.36 -6 4 C-4.35 3.67 -2.7 3.34 -1 3 C-0.67 2.01 -0.34 1.02 0 0 Z " fill="#6BED9F" transform="translate(399,200)"/>
<path d="M0 0 C2.3125 -0.25 2.3125 -0.25 5 0 C6.8125 2 6.8125 2 8 4 C5.69 3.67 3.38 3.34 1 3 C0.67 2.01 0.34 1.02 0 0 Z " fill="#2EF177" transform="translate(160,200)"/>
<path d="M0 0 C2.9719385 1.12451727 5.33440687 2.22293791 8 4 C8 4.66 8 5.32 8 6 C6.35 5.67 4.7 5.34 3 5 C3 4.34 3 3.68 3 3 C2.01 2.67 1.02 2.34 0 2 C0 1.34 0 0.68 0 0 Z " fill="#7BF5E8" transform="translate(345,56)"/>
<path d="M0 0 C0.66 0.33 1.32 0.66 2 1 C0.02 3.97 0.02 3.97 -2 7 C-3.32 6.67 -4.64 6.34 -6 6 C-4.02 4.02 -2.04 2.04 0 0 Z " fill="#76F4E9" transform="translate(186,349)"/>
<path d="M0 0 C1.32 0.33 2.64 0.66 4 1 C4 1.66 4 2.32 4 3 C4.66 3 5.32 3 6 3 C5.67 4.32 5.34 5.64 5 7 C3.29115995 5.37660195 1.62553283 3.70680947 0 2 C0 1.34 0 0.68 0 0 Z " fill="#47EC89" transform="translate(382,345)"/>
<path d="M0 0 C2.18975773 3.28463659 2.99806563 6.20696275 4 10 C3.34 10 2.68 10 2 10 C-1.07692308 4.58461538 -1.07692308 4.58461538 -0.6875 1.625 C-0.460625 1.08875 -0.23375 0.5525 0 0 Z " fill="#64EE9C" transform="translate(85,341)"/>
<path d="M0 0 C0.99 0.33 1.98 0.66 3 1 C3 1.66 3 2.32 3 3 C3.66 3.33 4.32 3.66 5 4 C3.68 4.99 2.36 5.98 1 7 C-0.0625 4.625 -0.0625 4.625 -1 2 C-0.67 1.34 -0.34 0.68 0 0 Z " fill="#37F57B" transform="translate(147,338)"/>
<path d="M0 0 C0.99 0.33 1.98 0.66 3 1 C0.69 3.64 -1.62 6.28 -4 9 C-4.33 8.01 -4.66 7.02 -5 6 C-4.01 5.67 -3.02 5.34 -2 5 C-2 4.34 -2 3.68 -2 3 C-1.34 3 -0.68 3 0 3 C0 2.01 0 1.02 0 0 Z " fill="#6AED98" transform="translate(166,323)"/>
<path d="M0 0 C5.75 3.625 5.75 3.625 8 7 C6.35 6.67 4.7 6.34 3 6 C3 5.34 3 4.68 3 4 C2.34 4 1.68 4 1 4 C0.67 2.68 0.34 1.36 0 0 Z " fill="#74F4E6" transform="translate(304,312)"/>
<path d="M0 0 C1.16959987 0.97566112 2.33561177 1.955625 3.5 2.9375 C4.1496875 3.48277344 4.799375 4.02804687 5.46875 4.58984375 C5.9740625 5.05519531 6.479375 5.52054687 7 6 C7 6.33 7 6.66 7 7 C5.35 7 3.7 7 2 7 C1.34 4.69 0.68 2.38 0 0 Z " fill="#60F4E5" transform="translate(286,294)"/>
<path d="M0 0 C0.99 0 1.98 0 3 0 C3 1.32 3 2.64 3 4 C3.99 3.67 4.98 3.34 6 3 C6 4.65 6 6.3 6 8 C1.125 3.375 1.125 3.375 0 0 Z " fill="#4BEE8A" transform="translate(9,284)"/>
<path d="M0 0 C1.2065625 0.0309375 1.2065625 0.0309375 2.4375 0.0625 C0.79580472 2.08304804 -0.87161778 4.08293058 -2.5625 6.0625 C-2.8925 6.0625 -3.2225 6.0625 -3.5625 6.0625 C-3.605221 4.39638095 -3.60313832 2.72867115 -3.5625 1.0625 C-2.5625 0.0625 -2.5625 0.0625 0 0 Z " fill="#5BF5ED" transform="translate(248.5625,212.9375)"/>
<path d="M0 0 C1.32 1.32 2.64 2.64 4 4 C3.01 4 2.02 4 1 4 C1 4.66 1 5.32 1 6 C0.34 6 -0.32 6 -1 6 C-1.66 4.35 -2.32 2.7 -3 1 C-2.01 1.33 -1.02 1.66 0 2 C0 1.34 0 0.68 0 0 Z " fill="#2AF473" transform="translate(148,184)"/>
<path d="M0 0 C0.33 1.32 0.66 2.64 1 4 C-0.1875 5.8125 -0.1875 5.8125 -2 7 C-3.32 6.67 -4.64 6.34 -6 6 C-4.02 4.02 -2.04 2.04 0 0 Z " fill="#59F1E5" transform="translate(291,79)"/>
<path d="M0 0 C0.66 0 1.32 0 2 0 C1.38722388 2.96175123 0.74627478 4.38058783 -1 7 C-1.66 7 -2.32 7 -3 7 C-2.67 5.35 -2.34 3.7 -2 2 C-1.34 2 -0.68 2 0 2 C0 1.34 0 0.68 0 0 Z " fill="#71F5EA" transform="translate(299,473)"/>
<path d="M0 0 C2.97 0.33 5.94 0.66 9 1 C9 1.99 9 2.98 9 4 C6.03 3.01 3.06 2.02 0 1 C0 0.67 0 0.34 0 0 Z " fill="#6EF4EA" transform="translate(152,442)"/>
<path d="M0 0 C0.99 0 1.98 0 3 0 C3 1.32 3 2.64 3 4 C1.68 4 0.36 4 -1 4 C-1.33 4.66 -1.66 5.32 -2 6 C-1.125 1.125 -1.125 1.125 0 0 Z " fill="#1CF36B" transform="translate(181,306)"/>
<path d="M0 0 C0.66 0.33 1.32 0.66 2 1 C1.3125 2.9375 1.3125 2.9375 0 5 C-2.625 5.75 -2.625 5.75 -5 6 C-3.35 4.02 -1.7 2.04 0 0 Z " fill="#61F4E9" transform="translate(257,278)"/>
<path d="M0 0 C2.31 0 4.62 0 7 0 C6.67 1.98 6.34 3.96 6 6 C3.97945196 4.35830472 1.97956942 2.69088222 0 1 C0 0.67 0 0.34 0 0 Z " fill="#45F086" transform="translate(296,260)"/>
<path d="M0 0 C1.32 1.32 2.64 2.64 4 4 C3.01 4 2.02 4 1 4 C0.67 4.66 0.34 5.32 0 6 C-0.99 5.01 -1.98 4.02 -3 3 C-2.67 2.34 -2.34 1.68 -2 1 C-1.34 1.33 -0.68 1.66 0 2 C0 1.34 0 0.68 0 0 Z " fill="#2CF374" transform="translate(180,216)"/>
<path d="M0 0 C1.875 0.5625 1.875 0.5625 4 2 C5.25 5.625 5.25 5.625 6 9 C2.91910327 6.22719294 1.31224548 3.93673644 0 0 Z " fill="#6FEFA0" transform="translate(56,183)"/>
<path d="M0 0 C2.475 0.495 2.475 0.495 5 1 C5.33 2.65 5.66 4.3 6 6 C3.97945196 4.35830472 1.97956942 2.69088222 0 1 C0 0.67 0 0.34 0 0 Z " fill="#47EE8A" transform="translate(290,254)"/>
<path d="M0 0 C3.16115776 1.36983503 3.9927092 1.9890638 6 5 C3.03 4.505 3.03 4.505 0 4 C0 2.68 0 1.36 0 0 Z " fill="#50EF92" transform="translate(67,232)"/>
<path d="M0 0 C2.5 2.3125 2.5 2.3125 5 5 C5 5.99 5 6.98 5 8 C2.5 6.25 2.5 6.25 0 4 C0 2.68 0 1.36 0 0 Z " fill="#54ED8F" transform="translate(485,207)"/>
<path d="M0 0 C0.66 0 1.32 0 2 0 C2 0.66 2 1.32 2 2 C3.32 2 4.64 2 6 2 C6 3.65 6 5.3 6 7 C1.125 3.375 1.125 3.375 0 0 Z " fill="#71F5E7" transform="translate(202,194)"/>
<path d="M0 0 C0.33 0.99 0.66 1.98 1 3 C-1.40339772 5.76390737 -2.16263678 6.04065919 -6 7 C-4.02 4.69 -2.04 2.38 0 0 Z " fill="#4DF08B" transform="translate(327,180)"/>
<path d="M0 0 C1.65 0 3.3 0 5 0 C5.33 1.98 5.66 3.96 6 6 C3.97945196 4.35830472 1.97956942 2.69088222 0 1 C0 0.67 0 0.34 0 0 Z " fill="#61F6E6" transform="translate(152,144)"/>
<path d="M0 0 C1.65 0.33 3.3 0.66 5 1 C5.33 1.99 5.66 2.98 6 4 C3.69 3.67 1.38 3.34 -1 3 C-0.67 2.01 -0.34 1.02 0 0 Z " fill="#35EB77" transform="translate(396,138)"/>
<path d="M0 0 C0.99 0.33 1.98 0.66 3 1 C-0.465 3.97 -0.465 3.97 -4 7 C-3.04065919 3.16263678 -2.76390737 2.40339772 0 0 Z " fill="#67F5E9" transform="translate(324,137)"/>
<path d="M0 0 C0 3 0 3 -2 6 C-3.32 5.67 -4.64 5.34 -6 5 C-4.02 3.35 -2.04 1.7 0 0 Z " fill="#6AF3E8" transform="translate(313,58)"/>
<path d="M0 0 C2.97 0.495 2.97 0.495 6 1 C6 2.65 6 4.3 6 6 C3.97945196 4.35830472 1.97956942 2.69088222 0 1 C0 0.67 0 0.34 0 0 Z " fill="#4BEF8B" transform="translate(328,292)"/>
<path d="M0 0 C0.99 0.33 1.98 0.66 3 1 C0.53846154 4.81538462 0.53846154 4.81538462 -2.1875 5.75 C-2.785625 5.8325 -3.38375 5.915 -4 6 C-4 5.01 -4 4.02 -4 3 C-2.68 3 -1.36 3 0 3 C0 2.01 0 1.02 0 0 Z " fill="#55EA94" transform="translate(479,266)"/>
<path d="M0 0 C2.475 0.495 2.475 0.495 5 1 C5 1.66 5 2.32 5 3 C5.66 3 6.32 3 7 3 C7 3.66 7 4.32 7 5 C3.34683329 3.75023244 2.21934164 3.32901247 0 0 Z " fill="#63EA96" transform="translate(431,267)"/>
<path d="M0 0 C2.02054804 1.64169528 4.02043058 3.30911778 6 5 C6 5.33 6 5.66 6 6 C4.35 6 2.7 6 1 6 C0.67 4.02 0.34 2.04 0 0 Z " fill="#4AED8B" transform="translate(218,254)"/>
<path d="M0 0 C2.31 0.33 4.62 0.66 7 1 C6.34 2.32 5.68 3.64 5 5 C3.35 3.35 1.7 1.7 0 0 Z " fill="#62F6E6" transform="translate(208,201)"/>
<path d="M0 0 C-0.33 2.31 -0.66 4.62 -1 7 C-1.66 7 -2.32 7 -3 7 C-3 5.02 -3 3.04 -3 1 C-1 0 -1 0 0 0 Z " fill="#3AED7D" transform="translate(416,179)"/>
<path d="M0 0 C0.99 0.33 1.98 0.66 3 1 C-0.465 3.97 -0.465 3.97 -4 7 C-3.67 5.68 -3.34 4.36 -3 3 C-2.01 2.67 -1.02 2.34 0 2 C0 1.34 0 0.68 0 0 Z " fill="#88F4ED" transform="translate(307,155)"/>
<path d="" fill="#FFFFFF" transform="translate(0,0)"/>
<path d="" fill="#FFFFFF" transform="translate(0,0)"/>
<path d="" fill="#FFFFFF" transform="translate(0,0)"/>
<path d="" fill="#FFFFFF" transform="translate(0,0)"/>
<path d="" fill="#FFFFFF" transform="translate(0,0)"/>
<path d="" fill="#FFFFFF" transform="translate(0,0)"/>
<path d="" fill="#FFFFFF" transform="translate(0,0)"/>
<path d="" fill="#FFFFFF" transform="translate(0,0)"/>
<path d="" fill="#FFFFFF" transform="translate(0,0)"/>
<path d="" fill="#FFFFFF" transform="translate(0,0)"/>
<path d="" fill="#FFFFFF" transform="translate(0,0)"/>
<path d="" fill="#FFFFFF" transform="translate(0,0)"/>
<path d="" fill="#FFFFFF" transform="translate(0,0)"/>
<path d="" fill="#FFFFFF" transform="translate(0,0)"/>
<path d="" fill="#FFFFFF" transform="translate(0,0)"/>
<path d="" fill="#FFFFFF" transform="translate(0,0)"/>
<path d="" fill="#FFFFFF" transform="translate(0,0)"/>
<path d="" fill="#FFFFFF" transform="translate(0,0)"/>
<path d="" fill="#FFFFFF" transform="translate(0,0)"/>
<path d="" fill="#FFFFFF" transform="translate(0,0)"/>
<path d="" fill="#FFFFFF" transform="translate(0,0)"/>
<path d="" fill="#FFFFFF" transform="translate(0,0)"/>
<path d="" fill="#FFFFFF" transform="translate(0,0)"/>
<path d="" fill="#FFFFFF" transform="translate(0,0)"/>
<path d="" fill="#FFFFFF" transform="translate(0,0)"/>
<path d="" fill="#FFFFFF" transform="translate(0,0)"/>
<path d="" fill="#FFFFFF" transform="translate(0,0)"/>
<path d="" fill="#FFFFFF" transform="translate(0,0)"/>
<path d="" fill="#FFFFFF" transform="translate(0,0)"/>
<path d="" fill="#FFFFFF" transform="translate(0,0)"/>
<path d="" fill="#FFFFFF" transform="translate(0,0)"/>
<path d="" fill="#FFFFFF" transform="translate(0,0)"/>
<path d="" fill="#FFFFFF" transform="translate(0,0)"/>
<path d="" fill="#FFFFFF" transform="translate(0,0)"/>
<path d="" fill="#FFFFFF" transform="translate(0,0)"/>
<path d="" fill="#FFFFFF" transform="translate(0,0)"/>
<path d="" fill="#FFFFFF" transform="translate(0,0)"/>
<path d="" fill="#FFFFFF" transform="translate(0,0)"/>
<path d="" fill="#FFFFFF" transform="translate(0,0)"/>
<path d="" fill="#FFFFFF" transform="translate(0,0)"/>
<path d="" fill="#FFFFFF" transform="translate(0,0)"/>
<path d="" fill="#FFFFFF" transform="translate(0,0)"/>
<path d="" fill="#FFFFFF" transform="translate(0,0)"/>
<path d="" fill="#FFFFFF" transform="translate(0,0)"/>
<path d="" fill="#FFFFFF" transform="translate(0,0)"/>
<path d="" fill="#FFFFFF" transform="translate(0,0)"/>
<path d="" fill="#FFFFFF" transform="translate(0,0)"/>
<path d="" fill="#FFFFFF" transform="translate(0,0)"/>
<path d="" fill="#FFFFFF" transform="translate(0,0)"/>
<path d="" fill="#FFFFFF" transform="translate(0,0)"/>
<path d="" fill="#FFFFFF" transform="translate(0,0)"/>
<path d="" fill="#FFFFFF" transform="translate(0,0)"/>
</svg>
